<svg xmlns="http://www.w3.org/2000/svg" xmlns:xlink="http://www.w3.org/1999/xlink" width="576.07" height="332.676" viewBox="0 0 576.07 332.676"><defs><style>.a,.c,.g,.l{fill:#fff;}.a{stroke:rgba(218,218,218,0.12);stroke-width:3px;}.b{fill:#5185fc;}.d{fill:#1fb565;stroke:#1fb565;}.e{fill:#fc7150;}.f,.o,.t{fill:none;}.f{stroke:#b7b7b7;stroke-width:2px;stroke-dasharray:5;}.f,.o{stroke-linecap:round;}.g{stroke:#eaeaea;stroke-linejoin:round;}.h{fill:#0096ff;}.i{fill:#333;font-size:13px;}.i,.l{font-family:Lato-Semibold, Lato;font-weight:600;}.j{fill:#98c14a;}.k{fill:#646464;}.l{font-size:14px;}.m{fill:rgba(232,232,232,0.55);}.n{fill:silver;}.o{stroke:#f3f3f3;stroke-width:8px;}.p{fill:#fcae51;}.q{fill:#fc51eb;}.r{fill:#040404;opacity:0.66;}.s{stroke:none;}.u{filter:url(#o);}.v{filter:url(#m);}.w{filter:url(#k);}.x{filter:url(#i);}.y{filter:url(#g);}.z{filter:url(#e);}.aa{filter:url(#c);}.ab{filter:url(#a);}</style><filter id="a" x="0" y="0" width="257.674" height="79.842" filterUnits="userSpaceOnUse"><feOffset dy="6" input="SourceAlpha"/><feGaussianBlur stdDeviation="7" result="b"/><feFlood flood-color="#9a9a9a" flood-opacity="0.149"/><feComposite operator="in" in2="b"/><feComposite in="SourceGraphic"/></filter><filter id="c" x="309.12" y="94.76" width="227.14" height="79.926" filterUnits="userSpaceOnUse"><feOffset dy="6" input="SourceAlpha"/><feGaussianBlur stdDeviation="7" result="d"/><feFlood flood-color="#9a9a9a" flood-opacity="0.149"/><feComposite operator="in" in2="d"/><feComposite in="SourceGraphic"/></filter><filter id="e" x="241.07" y="250.676" width="253" height="82" filterUnits="userSpaceOnUse"><feOffset dy="6" input="SourceAlpha"/><feGaussianBlur stdDeviation="7" result="f"/><feFlood flood-color="#9a9a9a" flood-opacity="0.149"/><feComposite operator="in" in2="f"/><feComposite in="SourceGraphic"/></filter><filter id="g" x="29.856" y="46.904" width="274.548" height="79.782" filterUnits="userSpaceOnUse"><feOffset dy="6" input="SourceAlpha"/><feGaussianBlur stdDeviation="7" result="h"/><feFlood flood-color="#9a9a9a" flood-opacity="0.149"/><feComposite operator="in" in2="h"/><feComposite in="SourceGraphic"/></filter><filter id="i" x="356.07" y="141.676" width="214" height="82" filterUnits="userSpaceOnUse"><feOffset dy="6" input="SourceAlpha"/><feGaussianBlur stdDeviation="7" result="j"/><feFlood flood-color="#9a9a9a" flood-opacity="0.149"/><feComposite operator="in" in2="j"/><feComposite in="SourceGraphic"/></filter><filter id="k" x="3.07" y="250.676" width="269" height="82" filterUnits="userSpaceOnUse"><feOffset dy="6" input="SourceAlpha"/><feGaussianBlur stdDeviation="7" result="l"/><feFlood flood-color="#9a9a9a" flood-opacity="0.149"/><feComposite operator="in" in2="l"/><feComposite in="SourceGraphic"/></filter><filter id="m" x="365.07" y="190.676" width="211" height="82" filterUnits="userSpaceOnUse"><feOffset dy="6" input="SourceAlpha"/><feGaussianBlur stdDeviation="7" result="n"/><feFlood flood-color="#9a9a9a" flood-opacity="0.149"/><feComposite operator="in" in2="n"/><feComposite in="SourceGraphic"/></filter><filter id="o" x="21.57" y="89.176" width="328" height="157" filterUnits="userSpaceOnUse"><feOffset dy="12" input="SourceAlpha"/><feGaussianBlur stdDeviation="10" result="p"/><feFlood flood-opacity="0.102"/><feComposite operator="in" in2="p"/><feComposite in="SourceGraphic"/></filter></defs><g transform="translate(-93.43 -2018.824)"><g transform="translate(-932 1885)"><g class="ab" transform="matrix(1, 0, 0, 1, 1025.43, 133.82)"><rect class="a" width="212.674" height="34.842" rx="4" transform="translate(22.5 16.5)"/></g><g transform="translate(1183 156)"><rect class="b" width="70.674" height="18.842" rx="4" transform="translate(-3.07 2.324)"/><path class="c" d="M-57.45,0h-1.62V-8.676h1.62Zm1.866,0V-6.156h.906a.364.364,0,0,1,.378.27l.1.486a3.375,3.375,0,0,1,.393-.348,2.744,2.744,0,0,1,.438-.27,2.232,2.232,0,0,1,.5-.174,2.6,2.6,0,0,1,.576-.06,2.207,2.207,0,0,1,.894.171,1.767,1.767,0,0,1,.651.48,2.11,2.11,0,0,1,.4.738,3.136,3.136,0,0,1,.135.945V0H-51.7V-3.918a1.315,1.315,0,0,0-.261-.873.967.967,0,0,0-.783-.309,1.543,1.543,0,0,0-.72.174,2.58,2.58,0,0,0-.636.474V0Zm10.89-3.054V0h-1.614V-8.676h2.826a4.951,4.951,0,0,1,1.506.2,2.9,2.9,0,0,1,1.05.57,2.232,2.232,0,0,1,.612.876,3.058,3.058,0,0,1,.2,1.116,3.083,3.083,0,0,1-.21,1.155,2.4,2.4,0,0,1-.63.9,2.932,2.932,0,0,1-1.05.588,4.675,4.675,0,0,1-1.476.21Zm0-1.26h1.212a2.432,2.432,0,0,0,.774-.111,1.438,1.438,0,0,0,.546-.318,1.3,1.3,0,0,0,.324-.5,1.929,1.929,0,0,0,.108-.663,1.75,1.75,0,0,0-.108-.63,1.245,1.245,0,0,0-.324-.48,1.441,1.441,0,0,0-.546-.3,2.56,2.56,0,0,0-.774-.1h-1.212ZM-38.946,0V-6.156h.87a.466.466,0,0,1,.318.084.483.483,0,0,1,.12.288l.09.744a2.925,2.925,0,0,1,.774-.9,1.629,1.629,0,0,1,1-.33,1.287,1.287,0,0,1,.756.21l-.192,1.11a.229.229,0,0,1-.078.153.264.264,0,0,1-.162.045,1.01,1.01,0,0,1-.246-.042,1.646,1.646,0,0,0-.414-.042,1.257,1.257,0,0,0-.792.255,1.963,1.963,0,0,0-.558.747V0Zm7.53-6.252a3.374,3.374,0,0,1,1.251.222,2.7,2.7,0,0,1,.957.63,2.789,2.789,0,0,1,.612,1A3.789,3.789,0,0,1-28.38-3.09,3.807,3.807,0,0,1-28.6-1.77a2.85,2.85,0,0,1-.612,1,2.659,2.659,0,0,1-.957.636A3.374,3.374,0,0,1-31.416.09,3.4,3.4,0,0,1-32.67-.132a2.683,2.683,0,0,1-.963-.636,2.863,2.863,0,0,1-.618-1,3.76,3.76,0,0,1-.219-1.32A3.742,3.742,0,0,1-34.251-4.4a2.8,2.8,0,0,1,.618-1,2.722,2.722,0,0,1,.963-.63A3.4,3.4,0,0,1-31.416-6.252Zm0,5.2a1.3,1.3,0,0,0,1.137-.516,2.587,2.587,0,0,0,.369-1.512A2.617,2.617,0,0,0-30.279-4.6a1.3,1.3,0,0,0-1.137-.522,1.316,1.316,0,0,0-1.152.525,2.6,2.6,0,0,0-.372,1.515,2.573,2.573,0,0,0,.372,1.509A1.321,1.321,0,0,0-31.416-1.05Zm6.324-5.214a3.276,3.276,0,0,1,.744.081,2.535,2.535,0,0,1,.636.237h1.77v.552a.306.306,0,0,1-.072.216.428.428,0,0,1-.246.108l-.552.1a1.907,1.907,0,0,1,.093.33,1.962,1.962,0,0,1,.033.366,1.831,1.831,0,0,1-.183.825,1.849,1.849,0,0,1-.5.627,2.34,2.34,0,0,1-.762.4,3.127,3.127,0,0,1-.957.141,3.449,3.449,0,0,1-.678-.066q-.288.175-.288.393a.29.29,0,0,0,.171.275,1.391,1.391,0,0,0,.45.124,4.95,4.95,0,0,0,.633.036q.354,0,.726.03a5.7,5.7,0,0,1,.726.105,2.126,2.126,0,0,1,.633.238,1.269,1.269,0,0,1,.45.442A1.362,1.362,0,0,1-22.1.017a1.7,1.7,0,0,1-.2.795,2.133,2.133,0,0,1-.582.686,3.037,3.037,0,0,1-.933.485,3.986,3.986,0,0,1-1.26.184,4.851,4.851,0,0,1-1.218-.135,2.843,2.843,0,0,1-.855-.36,1.561,1.561,0,0,1-.507-.519A1.217,1.217,0,0,1-27.822.54a1.047,1.047,0,0,1,.264-.726,1.809,1.809,0,0,1,.732-.468,1.021,1.021,0,0,1-.366-.336.978.978,0,0,1-.138-.546.916.916,0,0,1,.048-.285,1.139,1.139,0,0,1,.147-.291,1.433,1.433,0,0,1,.249-.273,1.718,1.718,0,0,1,.354-.231,1.942,1.942,0,0,1-.735-.672,1.8,1.8,0,0,1-.267-.984,1.831,1.831,0,0,1,.183-.825,1.849,1.849,0,0,1,.51-.63,2.326,2.326,0,0,1,.774-.4A3.292,3.292,0,0,1-25.092-6.264ZM-23.466.258a.424.424,0,0,0-.108-.3.708.708,0,0,0-.294-.181A2.134,2.134,0,0,0-24.3-.317a4.332,4.332,0,0,0-.528-.031h-.576a2.455,2.455,0,0,1-.573-.066,1.34,1.34,0,0,0-.405.327.672.672,0,0,0-.153.435.6.6,0,0,0,.081.3A.676.676,0,0,0-26.2.894a1.533,1.533,0,0,0,.459.159,3.549,3.549,0,0,0,.69.057,3.449,3.449,0,0,0,.714-.064,1.694,1.694,0,0,0,.5-.178A.755.755,0,0,0-23.556.6.669.669,0,0,0-23.466.258Zm-1.626-3.486a1.39,1.39,0,0,0,.48-.075.942.942,0,0,0,.339-.207.853.853,0,0,0,.2-.318A1.165,1.165,0,0,0-24-4.236a.965.965,0,0,0-.273-.723,1.128,1.128,0,0,0-.819-.267,1.128,1.128,0,0,0-.819.267.965.965,0,0,0-.273.723,1.147,1.147,0,0,0,.069.4.881.881,0,0,0,.2.321.917.917,0,0,0,.342.21A1.4,1.4,0,0,0-25.092-3.228ZM-21.012,0V-6.156h.87a.466.466,0,0,1,.318.084.483.483,0,0,1,.12.288l.09.744a2.925,2.925,0,0,1,.774-.9,1.629,1.629,0,0,1,1-.33,1.287,1.287,0,0,1,.756.21l-.192,1.11a.229.229,0,0,1-.078.153.264.264,0,0,1-.162.045,1.01,1.01,0,0,1-.246-.042,1.646,1.646,0,0,0-.414-.042,1.257,1.257,0,0,0-.792.255,1.963,1.963,0,0,0-.558.747V0Zm7.446-6.252a2.989,2.989,0,0,1,1.071.186,2.345,2.345,0,0,1,.843.543,2.481,2.481,0,0,1,.552.876,3.308,3.308,0,0,1,.2,1.185,2.144,2.144,0,0,1-.015.279.446.446,0,0,1-.054.174.219.219,0,0,1-.1.09.448.448,0,0,1-.168.027h-3.8a2.12,2.12,0,0,0,.51,1.392,1.59,1.59,0,0,0,1.176.444,2.037,2.037,0,0,0,.621-.084,2.912,2.912,0,0,0,.456-.186q.2-.1.342-.186a.574.574,0,0,1,.285-.084.321.321,0,0,1,.156.036.345.345,0,0,1,.114.1l.432.54a2.47,2.47,0,0,1-.552.483,3.1,3.1,0,0,1-.639.312,3.493,3.493,0,0,1-.678.165,4.855,4.855,0,0,1-.669.048,3.288,3.288,0,0,1-1.194-.213,2.673,2.673,0,0,1-.96-.63,2.956,2.956,0,0,1-.642-1.032,3.994,3.994,0,0,1-.234-1.425,3.408,3.408,0,0,1,.2-1.185,2.849,2.849,0,0,1,.585-.966,2.754,2.754,0,0,1,.93-.651A3.063,3.063,0,0,1-13.566-6.252Zm.03,1.062a1.37,1.37,0,0,0-1.014.366,1.805,1.805,0,0,0-.468,1.038h2.784a1.847,1.847,0,0,0-.078-.543,1.253,1.253,0,0,0-.24-.447,1.136,1.136,0,0,0-.408-.3A1.39,1.39,0,0,0-13.536-5.19Zm7.494.234a.4.4,0,0,1-.126.135.326.326,0,0,1-.168.039.529.529,0,0,1-.231-.06q-.123-.06-.285-.135a2.61,2.61,0,0,0-.369-.135,1.767,1.767,0,0,0-.489-.06,1.139,1.139,0,0,0-.69.186.577.577,0,0,0-.252.486.464.464,0,0,0,.129.333,1.16,1.16,0,0,0,.342.237,3.347,3.347,0,0,0,.483.183q.27.081.552.177t.552.219a1.925,1.925,0,0,1,.483.312,1.449,1.449,0,0,1,.342.453,1.437,1.437,0,0,1,.129.636,2.043,2.043,0,0,1-.162.819,1.8,1.8,0,0,1-.474.648,2.221,2.221,0,0,1-.771.426A3.326,3.326,0,0,1-8.1.1,3.352,3.352,0,0,1-8.721.039,3.665,3.665,0,0,1-9.3-.12a3.221,3.221,0,0,1-.516-.24,2.5,2.5,0,0,1-.417-.3l.342-.564a.484.484,0,0,1,.156-.156.437.437,0,0,1,.228-.054.479.479,0,0,1,.261.078q.123.078.285.168a2.547,2.547,0,0,0,.381.168,1.676,1.676,0,0,0,.555.078A1.44,1.44,0,0,0-7.575-1a.959.959,0,0,0,.312-.165.619.619,0,0,0,.18-.237.711.711,0,0,0,.057-.279.5.5,0,0,0-.129-.354A1.129,1.129,0,0,0-7.5-2.28a3.3,3.3,0,0,0-.486-.183q-.273-.081-.558-.177A5.162,5.162,0,0,1-9.1-2.865a1.9,1.9,0,0,1-.486-.327,1.48,1.48,0,0,1-.342-.486,1.7,1.7,0,0,1-.129-.7,1.773,1.773,0,0,1,.15-.72,1.689,1.689,0,0,1,.441-.6A2.19,2.19,0,0,1-8.739-6.1a3.024,3.024,0,0,1,1-.153,3.077,3.077,0,0,1,1.158.21,2.615,2.615,0,0,1,.87.552Zm5.244,0a.4.4,0,0,1-.126.135.326.326,0,0,1-.168.039.529.529,0,0,1-.231-.06q-.123-.06-.285-.135a2.61,2.61,0,0,0-.369-.135,1.767,1.767,0,0,0-.489-.06,1.139,1.139,0,0,0-.69.186.577.577,0,0,0-.252.486.464.464,0,0,0,.129.333,1.16,1.16,0,0,0,.342.237,3.347,3.347,0,0,0,.483.183q.27.081.552.177t.552.219a1.925,1.925,0,0,1,.483.312,1.449,1.449,0,0,1,.342.453A1.437,1.437,0,0,1-.4-1.95a2.043,2.043,0,0,1-.162.819,1.8,1.8,0,0,1-.474.648A2.221,2.221,0,0,1-1.8-.057,3.326,3.326,0,0,1-2.856.1,3.352,3.352,0,0,1-3.477.039,3.665,3.665,0,0,1-4.059-.12a3.221,3.221,0,0,1-.516-.24,2.5,2.5,0,0,1-.417-.3l.342-.564a.484.484,0,0,1,.156-.156.437.437,0,0,1,.228-.054A.479.479,0,0,1-4-1.356q.123.078.285.168a2.548,2.548,0,0,0,.381.168,1.676,1.676,0,0,0,.555.078A1.44,1.44,0,0,0-2.331-1a.959.959,0,0,0,.312-.165.619.619,0,0,0,.18-.237.711.711,0,0,0,.057-.279.5.5,0,0,0-.129-.354,1.129,1.129,0,0,0-.342-.24,3.3,3.3,0,0,0-.486-.183q-.273-.081-.558-.177a5.162,5.162,0,0,1-.558-.225,1.9,1.9,0,0,1-.486-.327,1.48,1.48,0,0,1-.342-.486,1.7,1.7,0,0,1-.129-.7,1.773,1.773,0,0,1,.15-.72,1.689,1.689,0,0,1,.441-.6A2.19,2.19,0,0,1-3.495-6.1,3.024,3.024,0,0,1-2.49-6.252a3.077,3.077,0,0,1,1.158.21,2.615,2.615,0,0,1,.87.552Z" transform="translate(62 15)"/></g></g><g transform="translate(129 -231)"><g transform="translate(-780 2211)"><g class="aa" transform="matrix(1, 0, 0, 1, 744.43, 38.82)"><rect class="a" width="182.14" height="34.926" rx="4" transform="translate(331.62 111.26)"/></g><g transform="translate(1186 156)"><g class="d" transform="translate(-4.95 2.084)"><rect class="s" width="70.14" height="18.926" rx="4"/><rect class="t" x="0.5" y="0.5" width="69.14" height="17.926" rx="3.5"/></g><path class="c" d="M-52.482-2.046a.3.3,0,0,1,.228.1l.636.69a3.493,3.493,0,0,1-1.3,1A4.476,4.476,0,0,1-54.768.1a4.374,4.374,0,0,1-1.737-.33,3.829,3.829,0,0,1-1.317-.918,4.019,4.019,0,0,1-.837-1.4,5.27,5.27,0,0,1-.291-1.782,4.8,4.8,0,0,1,.324-1.791,4.1,4.1,0,0,1,.912-1.4,4.128,4.128,0,0,1,1.407-.915A4.837,4.837,0,0,1-54.5-8.772a4.271,4.271,0,0,1,1.689.309,3.947,3.947,0,0,1,1.239.819l-.54.75a.49.49,0,0,1-.123.126.349.349,0,0,1-.207.054.472.472,0,0,1-.282-.108,3.491,3.491,0,0,0-.366-.234,2.983,2.983,0,0,0-.561-.234A2.887,2.887,0,0,0-54.51-7.4a2.905,2.905,0,0,0-1.125.213,2.5,2.5,0,0,0-.882.609,2.8,2.8,0,0,0-.576.963A3.7,3.7,0,0,0-57.3-4.338a3.8,3.8,0,0,0,.207,1.3,2.863,2.863,0,0,0,.561.96,2.4,2.4,0,0,0,.834.6,2.578,2.578,0,0,0,1.032.207,4.5,4.5,0,0,0,.6-.036,2.534,2.534,0,0,0,.492-.114,2.184,2.184,0,0,0,.426-.2,2.662,2.662,0,0,0,.4-.3.569.569,0,0,1,.126-.087A.317.317,0,0,1-52.482-2.046Zm4.626-4.206A3.374,3.374,0,0,1-46.6-6.03a2.7,2.7,0,0,1,.957.63,2.789,2.789,0,0,1,.612,1A3.789,3.789,0,0,1-44.82-3.09a3.807,3.807,0,0,1-.216,1.32,2.85,2.85,0,0,1-.612,1,2.659,2.659,0,0,1-.957.636A3.374,3.374,0,0,1-47.856.09,3.4,3.4,0,0,1-49.11-.132a2.683,2.683,0,0,1-.963-.636,2.863,2.863,0,0,1-.618-1,3.76,3.76,0,0,1-.219-1.32A3.742,3.742,0,0,1-50.691-4.4a2.8,2.8,0,0,1,.618-1,2.722,2.722,0,0,1,.963-.63A3.4,3.4,0,0,1-47.856-6.252Zm0,5.2a1.3,1.3,0,0,0,1.137-.516,2.587,2.587,0,0,0,.369-1.512A2.617,2.617,0,0,0-46.719-4.6a1.3,1.3,0,0,0-1.137-.522,1.316,1.316,0,0,0-1.152.525,2.6,2.6,0,0,0-.372,1.515,2.573,2.573,0,0,0,.372,1.509A1.321,1.321,0,0,0-47.856-1.05ZM-43.662,0V-6.156h.906a.364.364,0,0,1,.378.27l.1.456a3.5,3.5,0,0,1,.339-.33,2.178,2.178,0,0,1,.378-.258,2.047,2.047,0,0,1,.432-.171,1.923,1.923,0,0,1,.507-.063,1.437,1.437,0,0,1,.957.315,1.9,1.9,0,0,1,.561.837,1.878,1.878,0,0,1,.36-.525,1.968,1.968,0,0,1,.474-.357,2.181,2.181,0,0,1,.549-.2,2.637,2.637,0,0,1,.585-.066,2.458,2.458,0,0,1,.906.156,1.738,1.738,0,0,1,.666.456,2.01,2.01,0,0,1,.411.732,3.189,3.189,0,0,1,.141.99V0H-36.5V-3.918a1.317,1.317,0,0,0-.258-.885.947.947,0,0,0-.756-.3,1.129,1.129,0,0,0-.423.078,1.008,1.008,0,0,0-.342.225,1.027,1.027,0,0,0-.231.369,1.435,1.435,0,0,0-.084.51V0H-40.08V-3.918a1.341,1.341,0,0,0-.249-.9.929.929,0,0,0-.735-.282,1.186,1.186,0,0,0-.6.159,2.011,2.011,0,0,0-.519.435V0Zm10.1,2.01V-6.156h.906a.443.443,0,0,1,.246.066.308.308,0,0,1,.132.2l.12.57a3.107,3.107,0,0,1,.855-.69,2.322,2.322,0,0,1,1.131-.264,2.018,2.018,0,0,1,.921.21,2.067,2.067,0,0,1,.72.609,2.921,2.921,0,0,1,.468.984,4.951,4.951,0,0,1,.165,1.341,4.217,4.217,0,0,1-.186,1.278,3.127,3.127,0,0,1-.531,1.02,2.453,2.453,0,0,1-.834.675A2.427,2.427,0,0,1-30.54.09a2.2,2.2,0,0,1-.885-.159,2.166,2.166,0,0,1-.651-.441V2.01Zm2.88-7.11a1.514,1.514,0,0,0-.789.2,2.282,2.282,0,0,0-.609.549V-1.6a1.411,1.411,0,0,0,.549.435,1.653,1.653,0,0,0,.639.123,1.436,1.436,0,0,0,.609-.126,1.182,1.182,0,0,0,.462-.384,1.9,1.9,0,0,0,.291-.651,3.72,3.72,0,0,0,.1-.927,4.115,4.115,0,0,0-.087-.915,1.768,1.768,0,0,0-.249-.609.984.984,0,0,0-.393-.342A1.226,1.226,0,0,0-30.678-5.1Zm5.484-3.816V0h-1.482V-8.916Zm4.218,2.664a2.989,2.989,0,0,1,1.071.186,2.345,2.345,0,0,1,.843.543,2.481,2.481,0,0,1,.552.876,3.308,3.308,0,0,1,.2,1.185,2.144,2.144,0,0,1-.015.279.446.446,0,0,1-.054.174.219.219,0,0,1-.1.09.448.448,0,0,1-.168.027h-3.8a2.12,2.12,0,0,0,.51,1.392,1.59,1.59,0,0,0,1.176.444,2.037,2.037,0,0,0,.621-.084,2.912,2.912,0,0,0,.456-.186q.195-.1.342-.186a.574.574,0,0,1,.285-.084.321.321,0,0,1,.156.036.345.345,0,0,1,.114.1l.432.54a2.47,2.47,0,0,1-.552.483,3.1,3.1,0,0,1-.639.312,3.493,3.493,0,0,1-.678.165A4.855,4.855,0,0,1-20.9.09,3.288,3.288,0,0,1-22.1-.123a2.673,2.673,0,0,1-.96-.63A2.956,2.956,0,0,1-23.7-1.785a3.994,3.994,0,0,1-.234-1.425,3.408,3.408,0,0,1,.2-1.185,2.849,2.849,0,0,1,.585-.966,2.754,2.754,0,0,1,.93-.651A3.063,3.063,0,0,1-20.976-6.252Zm.03,1.062a1.37,1.37,0,0,0-1.014.366,1.805,1.805,0,0,0-.468,1.038h2.784a1.847,1.847,0,0,0-.078-.543,1.253,1.253,0,0,0-.24-.447,1.136,1.136,0,0,0-.408-.3A1.39,1.39,0,0,0-20.946-5.19ZM-15.084.1a1.619,1.619,0,0,1-1.23-.453,1.739,1.739,0,0,1-.432-1.251V-5.046h-.624a.3.3,0,0,1-.207-.078.3.3,0,0,1-.087-.234v-.588l.99-.162.312-1.68a.3.3,0,0,1,.111-.186.352.352,0,0,1,.219-.066h.768V-6.1h1.62v1.056h-1.62V-1.71a.654.654,0,0,0,.144.45.488.488,0,0,0,.384.162.7.7,0,0,0,.231-.033,1.271,1.271,0,0,0,.162-.069q.069-.036.123-.069a.206.206,0,0,1,.108-.033A.17.17,0,0,1-14-1.269a.5.5,0,0,1,.09.1l.444.72a2.244,2.244,0,0,1-.744.408A2.769,2.769,0,0,1-15.084.1Zm5.166-6.348a2.989,2.989,0,0,1,1.071.186A2.345,2.345,0,0,1-8-5.523a2.481,2.481,0,0,1,.552.876,3.308,3.308,0,0,1,.2,1.185,2.144,2.144,0,0,1-.015.279.446.446,0,0,1-.054.174.219.219,0,0,1-.105.09.448.448,0,0,1-.168.027h-3.8A2.12,2.12,0,0,0-10.89-1.5a1.59,1.59,0,0,0,1.176.444,2.037,2.037,0,0,0,.621-.084,2.912,2.912,0,0,0,.456-.186q.2-.1.342-.186A.574.574,0,0,1-8.01-1.6a.321.321,0,0,1,.156.036.345.345,0,0,1,.114.1l.432.54a2.47,2.47,0,0,1-.552.483A3.1,3.1,0,0,1-8.5-.123a3.493,3.493,0,0,1-.678.165A4.855,4.855,0,0,1-9.846.09,3.288,3.288,0,0,1-11.04-.123,2.673,2.673,0,0,1-12-.753a2.956,2.956,0,0,1-.642-1.032,3.994,3.994,0,0,1-.234-1.425,3.408,3.408,0,0,1,.2-1.185,2.849,2.849,0,0,1,.585-.966,2.754,2.754,0,0,1,.93-.651A3.063,3.063,0,0,1-9.918-6.252Zm.03,1.062a1.37,1.37,0,0,0-1.014.366,1.805,1.805,0,0,0-.468,1.038h2.784a1.847,1.847,0,0,0-.078-.543,1.253,1.253,0,0,0-.24-.447,1.136,1.136,0,0,0-.408-.3A1.39,1.39,0,0,0-9.888-5.19ZM-1.716,0a.364.364,0,0,1-.378-.27l-.12-.594a3.68,3.68,0,0,1-.4.39,2.542,2.542,0,0,1-.453.3,2.36,2.36,0,0,1-.522.2,2.507,2.507,0,0,1-.6.069,2.037,2.037,0,0,1-.924-.21,2.059,2.059,0,0,1-.723-.609,2.919,2.919,0,0,1-.468-.987A4.985,4.985,0,0,1-6.474-3.06a4.2,4.2,0,0,1,.186-1.272,3.1,3.1,0,0,1,.534-1.02,2.492,2.492,0,0,1,.834-.675A2.408,2.408,0,0,1-3.828-6.27a2.136,2.136,0,0,1,.882.165,2.311,2.311,0,0,1,.654.441V-8.916H-.81V0ZM-3.69-1.086A1.516,1.516,0,0,0-2.9-1.278a2.334,2.334,0,0,0,.612-.546v-2.76a1.458,1.458,0,0,0-.549-.432,1.619,1.619,0,0,0-.639-.126,1.436,1.436,0,0,0-.609.126,1.191,1.191,0,0,0-.462.381,1.866,1.866,0,0,0-.291.648,3.72,3.72,0,0,0-.1.927,4.115,4.115,0,0,0,.087.915,1.8,1.8,0,0,0,.249.612.949.949,0,0,0,.4.342A1.261,1.261,0,0,0-3.69-1.086Z" transform="translate(60 15)"/></g></g></g><g transform="translate(86 -73)"><g transform="translate(-780 2211)"><g class="z" transform="matrix(1, 0, 0, 1, 787.43, -119.18)"><rect class="a" width="208" height="37" rx="4" transform="translate(263.57 267.18)"/></g></g></g><g transform="translate(-932 1932)"><g class="y" transform="matrix(1, 0, 0, 1, 1025.43, 86.82)"><rect class="a" width="229.548" height="34.782" rx="4" transform="translate(52.36 63.4)"/></g><g transform="translate(1230 156)"><rect class="e" width="40.548" height="18.782" rx="4" transform="translate(26.786 2.228)"/><path class="c" d="M-20.418-4.338a4.809,4.809,0,0,1-.318,1.767,4.186,4.186,0,0,1-.894,1.407,4.048,4.048,0,0,1-1.386.927A4.676,4.676,0,0,1-24.81.1a4.7,4.7,0,0,1-1.8-.333A4.073,4.073,0,0,1-28-1.164a4.163,4.163,0,0,1-.9-1.407,4.809,4.809,0,0,1-.318-1.767A4.809,4.809,0,0,1-28.9-6.105,4.163,4.163,0,0,1-28-7.512a4.073,4.073,0,0,1,1.392-.927,4.7,4.7,0,0,1,1.8-.333,4.639,4.639,0,0,1,1.794.336,4.106,4.106,0,0,1,1.386.927,4.153,4.153,0,0,1,.894,1.4A4.809,4.809,0,0,1-20.418-4.338Zm-1.656,0a4.04,4.04,0,0,0-.189-1.281,2.71,2.71,0,0,0-.543-.963,2.338,2.338,0,0,0-.861-.606A2.962,2.962,0,0,0-24.81-7.4a2.985,2.985,0,0,0-1.146.21,2.36,2.36,0,0,0-.867.606,2.72,2.72,0,0,0-.549.963,3.982,3.982,0,0,0-.192,1.281,3.982,3.982,0,0,0,.192,1.281,2.689,2.689,0,0,0,.549.96,2.377,2.377,0,0,0,.867.6,2.985,2.985,0,0,0,1.146.21,2.962,2.962,0,0,0,1.143-.21,2.354,2.354,0,0,0,.861-.6,2.679,2.679,0,0,0,.543-.96A4.04,4.04,0,0,0-22.074-4.338ZM-19.23,2.01V-6.156h.906a.443.443,0,0,1,.246.066.308.308,0,0,1,.132.2l.12.57a3.107,3.107,0,0,1,.855-.69A2.322,2.322,0,0,1-15.84-6.27a2.018,2.018,0,0,1,.921.21,2.067,2.067,0,0,1,.72.609,2.921,2.921,0,0,1,.468.984,4.951,4.951,0,0,1,.165,1.341,4.217,4.217,0,0,1-.186,1.278,3.127,3.127,0,0,1-.531,1.02,2.453,2.453,0,0,1-.834.675,2.427,2.427,0,0,1-1.1.243A2.2,2.2,0,0,1-17.1-.069a2.166,2.166,0,0,1-.651-.441V2.01Zm2.88-7.11a1.514,1.514,0,0,0-.789.2,2.282,2.282,0,0,0-.609.549V-1.6a1.411,1.411,0,0,0,.549.435,1.653,1.653,0,0,0,.639.123,1.436,1.436,0,0,0,.609-.126,1.182,1.182,0,0,0,.462-.384A1.9,1.9,0,0,0-15.2-2.2a3.72,3.72,0,0,0,.1-.927,4.115,4.115,0,0,0-.087-.915,1.768,1.768,0,0,0-.249-.609.984.984,0,0,0-.393-.342A1.226,1.226,0,0,0-16.35-5.1ZM-9.9-6.252a2.989,2.989,0,0,1,1.071.186,2.345,2.345,0,0,1,.843.543,2.481,2.481,0,0,1,.552.876,3.308,3.308,0,0,1,.2,1.185,2.144,2.144,0,0,1-.015.279.446.446,0,0,1-.054.174.219.219,0,0,1-.105.09.448.448,0,0,1-.168.027h-3.8a2.12,2.12,0,0,0,.51,1.392A1.59,1.59,0,0,0-9.7-1.056a2.037,2.037,0,0,0,.621-.084,2.912,2.912,0,0,0,.456-.186q.2-.1.342-.186A.574.574,0,0,1-7.992-1.6a.321.321,0,0,1,.156.036.345.345,0,0,1,.114.1l.432.54a2.47,2.47,0,0,1-.552.483,3.1,3.1,0,0,1-.639.312,3.493,3.493,0,0,1-.678.165A4.855,4.855,0,0,1-9.828.09a3.288,3.288,0,0,1-1.194-.213,2.673,2.673,0,0,1-.96-.63,2.956,2.956,0,0,1-.642-1.032,3.994,3.994,0,0,1-.234-1.425,3.408,3.408,0,0,1,.2-1.185,2.849,2.849,0,0,1,.585-.966,2.754,2.754,0,0,1,.93-.651A3.063,3.063,0,0,1-9.9-6.252Zm.03,1.062a1.37,1.37,0,0,0-1.014.366,1.805,1.805,0,0,0-.468,1.038h2.784a1.847,1.847,0,0,0-.078-.543,1.253,1.253,0,0,0-.24-.447,1.136,1.136,0,0,0-.408-.3A1.39,1.39,0,0,0-9.87-5.19ZM-6.03,0V-6.156h.906a.364.364,0,0,1,.378.27l.1.486a3.376,3.376,0,0,1,.393-.348,2.744,2.744,0,0,1,.438-.27,2.232,2.232,0,0,1,.5-.174,2.6,2.6,0,0,1,.576-.06,2.207,2.207,0,0,1,.894.171A1.767,1.767,0,0,1-1.2-5.6a2.11,2.11,0,0,1,.4.738,3.136,3.136,0,0,1,.135.945V0H-2.148V-3.918a1.315,1.315,0,0,0-.261-.873A.967.967,0,0,0-3.192-5.1a1.543,1.543,0,0,0-.72.174,2.58,2.58,0,0,0-.636.474V0Z" transform="translate(62 15)"/></g></g><g transform="translate(113 -229)"><g transform="translate(-780 2258)"><g class="x" transform="matrix(1, 0, 0, 1, 760.43, -10.18)"><rect class="a" width="169" height="37" rx="4" transform="translate(378.57 158.18)"/></g></g></g><g transform="translate(-961 2138)"><g class="w" transform="matrix(1, 0, 0, 1, 1054.43, -119.18)"><rect class="a" width="224" height="37" rx="4" transform="translate(25.57 267.18)"/></g></g><g transform="translate(-115 -179)"><g transform="translate(567 2405)"><g class="v" transform="matrix(1, 0, 0, 1, -358.57, -207.18)"><rect class="a" width="166" height="37" rx="4" transform="translate(387.57 207.18)"/></g></g></g><g transform="translate(-469 -220)"><path class="f" d="M-372.566,3096.7-616,3089.333v58.929h332.529" transform="translate(1204 -719.884)"/><g transform="translate(615.36 2347)"><g class="u" transform="matrix(1, 0, 0, 1, -52.93, -108.18)"><g class="g" transform="translate(52.57 108.18)"><rect class="s" width="266" height="95" rx="4"/><rect class="t" x="-0.5" y="-0.5" width="267" height="96" rx="4.5"/></g></g><path class="h" d="M6,0H260a6,6,0,0,1,6,6V36a0,0,0,0,1,0,0H0a0,0,0,0,1,0,0V6A6,6,0,0,1,6,0Z" transform="translate(-0.36)"/><text class="i" transform="translate(31.64 21)"><tspan x="0" y="0">Add New List</tspan></text><path class="j" d="M1276.561,146.532h-4.4v-4.4a.842.842,0,0,0-1.632,0v4.4h-4.4a.842.842,0,0,0,0,1.632h4.4v4.4a.842.842,0,0,0,1.632,0v-4.4h4.4a.842.842,0,0,0,0-1.632Z" transform="translate(-1254.336 -125.255)"/><g transform="translate(5.262 4.209)"><rect class="c" width="254" height="29" rx="4" transform="translate(0.378 -0.209)"/><path class="h" d="M6.065-3.51,4.778-6.929a9.466,9.466,0,0,1-.319-1.007q-.071.306-.156.562t-.156.452L2.86-3.51ZM8.944,0H7.768a.5.5,0,0,1-.325-.1.655.655,0,0,1-.189-.25l-.78-2.067H2.444L1.664-.351a.623.623,0,0,1-.182.241A.484.484,0,0,1,1.157,0H-.02L3.692-9.36H5.233Zm4.92-5a1.643,1.643,0,0,0-.643-.526,1.92,1.92,0,0,0-.76-.149,1.524,1.524,0,0,0-1.281.6A2.888,2.888,0,0,0,10.719-3.3a4.52,4.52,0,0,0,.1,1.043,2.018,2.018,0,0,0,.3.705,1.152,1.152,0,0,0,.474.4,1.544,1.544,0,0,0,.63.123,1.762,1.762,0,0,0,.92-.231,2.65,2.65,0,0,0,.718-.653Zm1.4-4.621V0h-.845a.339.339,0,0,1-.358-.266l-.123-.722A3.5,3.5,0,0,1,12.99-.2a2.463,2.463,0,0,1-1.232.3,2.262,2.262,0,0,1-1.014-.224,2.182,2.182,0,0,1-.78-.653,3.165,3.165,0,0,1-.5-1.063A5.364,5.364,0,0,1,9.282-3.3a4.551,4.551,0,0,1,.2-1.372,3.348,3.348,0,0,1,.569-1.1,2.642,2.642,0,0,1,.9-.728,2.629,2.629,0,0,1,1.186-.263,2.4,2.4,0,0,1,.995.185,2.418,2.418,0,0,1,.734.517V-9.62ZM21.2-5a1.643,1.643,0,0,0-.643-.526,1.92,1.92,0,0,0-.76-.149,1.524,1.524,0,0,0-1.281.6A2.888,2.888,0,0,0,18.051-3.3a4.52,4.52,0,0,0,.1,1.043,2.018,2.018,0,0,0,.3.705,1.152,1.152,0,0,0,.475.4,1.544,1.544,0,0,0,.63.123,1.762,1.762,0,0,0,.92-.231,2.65,2.65,0,0,0,.718-.653Zm1.4-4.621V0h-.845a.339.339,0,0,1-.358-.266l-.123-.722a3.5,3.5,0,0,1-.946.787A2.463,2.463,0,0,1,19.09.1a2.262,2.262,0,0,1-1.014-.224A2.182,2.182,0,0,1,17.3-.78a3.165,3.165,0,0,1-.5-1.063A5.364,5.364,0,0,1,16.614-3.3a4.551,4.551,0,0,1,.2-1.372,3.348,3.348,0,0,1,.569-1.1,2.642,2.642,0,0,1,.9-.728,2.629,2.629,0,0,1,1.186-.263,2.4,2.4,0,0,1,.995.185,2.418,2.418,0,0,1,.734.517V-9.62ZM28.84-5.753a4.237,4.237,0,0,1,.445-.4,2.964,2.964,0,0,1,.491-.309,2.624,2.624,0,0,1,.552-.2,2.68,2.68,0,0,1,.637-.071,2.358,2.358,0,0,1,.959.182,1.917,1.917,0,0,1,.7.513,2.212,2.212,0,0,1,.426.8,3.469,3.469,0,0,1,.143,1.024V0H31.8V-4.219a1.58,1.58,0,0,0-.309-1.04,1.153,1.153,0,0,0-.939-.371,1.807,1.807,0,0,0-.868.214,2.976,2.976,0,0,0-.751.585V0h-1.4V-6.63h.845a.343.343,0,0,1,.364.267Zm10.335,1.69a2.054,2.054,0,0,0-.1-.653,1.529,1.529,0,0,0-.3-.526,1.349,1.349,0,0,0-.484-.351,1.646,1.646,0,0,0-.666-.127,1.616,1.616,0,0,0-1.2.436,2.113,2.113,0,0,0-.553,1.222ZM35.841-3.2a3.33,3.33,0,0,0,.175.978,2.017,2.017,0,0,0,.4.686,1.555,1.555,0,0,0,.6.406A2.156,2.156,0,0,0,37.791-1,2.368,2.368,0,0,0,38.5-1.1a3.326,3.326,0,0,0,.52-.208q.221-.114.377-.208a.563.563,0,0,1,.286-.094.3.3,0,0,1,.26.13l.4.514a2.515,2.515,0,0,1-.559.494,3.257,3.257,0,0,1-.663.328A3.745,3.745,0,0,1,38.4.042,4.89,4.89,0,0,1,37.674.1,3.467,3.467,0,0,1,36.4-.133a2.84,2.84,0,0,1-1.021-.679A3.136,3.136,0,0,1,34.7-1.924a4.413,4.413,0,0,1-.244-1.528,3.733,3.733,0,0,1,.218-1.287,3.07,3.07,0,0,1,.624-1.04,2.93,2.93,0,0,1,.988-.7A3.228,3.228,0,0,1,37.6-6.734a3.149,3.149,0,0,1,1.131.2,2.479,2.479,0,0,1,.9.582,2.675,2.675,0,0,1,.588.939,3.54,3.54,0,0,1,.211,1.264.892.892,0,0,1-.071.435.286.286,0,0,1-.26.111ZM50.967-6.63,48.841,0H47.73q-.2,0-.273-.254l-1.32-4.128q-.052-.176-.094-.351t-.075-.344q-.071.351-.175.7L44.454-.254A.3.3,0,0,1,44.148,0h-1.06L40.963-6.63h1.105a.434.434,0,0,1,.27.081.372.372,0,0,1,.14.192L43.583-2.5q.065.266.114.517t.088.5q.065-.247.136-.5t.15-.517l1.242-3.881a.35.35,0,0,1,.133-.192.4.4,0,0,1,.244-.075H46.3a.423.423,0,0,1,.253.075.345.345,0,0,1,.137.192L47.9-2.5q.078.266.146.52t.127.507q.046-.247.1-.5t.123-.526l1.125-3.861a.4.4,0,0,1,.143-.195.41.41,0,0,1,.254-.078Zm7.943,1.2a.347.347,0,0,1-.117.13.311.311,0,0,1-.162.039.523.523,0,0,1-.241-.068q-.13-.068-.306-.153a2.636,2.636,0,0,0-.413-.153,2.02,2.02,0,0,0-.556-.068,1.677,1.677,0,0,0-.471.062,1.06,1.06,0,0,0-.358.176.794.794,0,0,0-.224.266.711.711,0,0,0-.078.328.555.555,0,0,0,.143.39,1.238,1.238,0,0,0,.377.27,3.657,3.657,0,0,0,.533.2q.3.091.611.195a6.163,6.163,0,0,1,.611.241,2.291,2.291,0,0,1,.533.335,1.524,1.524,0,0,1,.377.481,1.506,1.506,0,0,1,.143.686,2.182,2.182,0,0,1-.169.865,1.941,1.941,0,0,1-.494.689,2.272,2.272,0,0,1-.809.455A3.478,3.478,0,0,1,56.732.1a3.528,3.528,0,0,1-.666-.062,3.832,3.832,0,0,1-.611-.169,3.257,3.257,0,0,1-.54-.257,2.841,2.841,0,0,1-.445-.325l.325-.533a.45.45,0,0,1,.146-.153.4.4,0,0,1,.218-.055.486.486,0,0,1,.27.088q.133.088.312.192a2.471,2.471,0,0,0,.432.192,1.948,1.948,0,0,0,.63.088,1.735,1.735,0,0,0,.54-.075,1.081,1.081,0,0,0,.377-.2.822.822,0,0,0,.221-.3.885.885,0,0,0,.072-.354.607.607,0,0,0-.143-.416,1.212,1.212,0,0,0-.38-.28,3.508,3.508,0,0,0-.54-.208q-.3-.091-.614-.195a6.438,6.438,0,0,1-.614-.24,2.113,2.113,0,0,1-.54-.348,1.587,1.587,0,0,1-.38-.514,1.716,1.716,0,0,1-.143-.738,1.832,1.832,0,0,1,.159-.754,1.83,1.83,0,0,1,.468-.631,2.274,2.274,0,0,1,.761-.432,3.133,3.133,0,0,1,1.043-.159,3.3,3.3,0,0,1,1.215.214,2.642,2.642,0,0,1,.917.585ZM62.751.1A1.677,1.677,0,0,1,61.48-.361a1.817,1.817,0,0,1-.445-1.31V-5.531h-.728a.294.294,0,0,1-.2-.075.284.284,0,0,1-.084-.224V-6.4l1.072-.156L61.4-8.47a.37.37,0,0,1,.111-.179.3.3,0,0,1,.208-.068h.715v2.177h1.84v1.008h-1.84v3.763a.773.773,0,0,0,.175.546.609.609,0,0,0,.468.188.825.825,0,0,0,.279-.042,1.264,1.264,0,0,0,.2-.091q.084-.049.146-.091a.213.213,0,0,1,.12-.042.213.213,0,0,1,.188.13l.416.683a2.268,2.268,0,0,1-.767.439A2.767,2.767,0,0,1,62.751.1Zm6.168-3a8.839,8.839,0,0,0-1.261.12,3.58,3.58,0,0,0-.832.24,1.1,1.1,0,0,0-.458.348.759.759,0,0,0-.14.442.968.968,0,0,0,.075.4.729.729,0,0,0,.208.273.846.846,0,0,0,.312.156,1.492,1.492,0,0,0,.393.049,2.01,2.01,0,0,0,.939-.2,2.939,2.939,0,0,0,.764-.595Zm-3.7-2.808a3.8,3.8,0,0,1,2.678-1.046,2.629,2.629,0,0,1,1.017.185,2.035,2.035,0,0,1,.748.523,2.313,2.313,0,0,1,.462.8,3.163,3.163,0,0,1,.159,1.03V0h-.624a.608.608,0,0,1-.306-.062.474.474,0,0,1-.175-.25l-.136-.54a6.155,6.155,0,0,1-.5.406,3.157,3.157,0,0,1-.51.3,2.508,2.508,0,0,1-.565.185A3.334,3.334,0,0,1,66.794.1a2.466,2.466,0,0,1-.751-.111,1.648,1.648,0,0,1-.6-.335,1.584,1.584,0,0,1-.4-.556,1.92,1.92,0,0,1-.146-.78,1.507,1.507,0,0,1,.2-.748,1.869,1.869,0,0,1,.676-.653,4.382,4.382,0,0,1,1.242-.478,9.019,9.019,0,0,1,1.9-.214v-.442a1.589,1.589,0,0,0-.305-1.066,1.125,1.125,0,0,0-.9-.351,1.967,1.967,0,0,0-.676.1,3.052,3.052,0,0,0-.475.218q-.2.117-.357.218a.6.6,0,0,1-.332.1.4.4,0,0,1-.244-.075.618.618,0,0,1-.166-.185ZM73.944.1a1.677,1.677,0,0,1-1.271-.465,1.817,1.817,0,0,1-.445-1.31V-5.531H71.5a.294.294,0,0,1-.2-.075.284.284,0,0,1-.084-.224V-6.4l1.073-.156.305-1.918a.37.37,0,0,1,.11-.179.3.3,0,0,1,.208-.068h.715v2.177h1.84v1.008h-1.84v3.763a.773.773,0,0,0,.175.546.609.609,0,0,0,.468.188.825.825,0,0,0,.279-.042,1.264,1.264,0,0,0,.2-.091q.085-.049.146-.091a.213.213,0,0,1,.12-.042.213.213,0,0,1,.188.13l.416.683a2.268,2.268,0,0,1-.767.439A2.767,2.767,0,0,1,73.944.1ZM82.16-6.63V0h-.845a.339.339,0,0,1-.357-.266l-.1-.618a4.028,4.028,0,0,1-.439.4,2.846,2.846,0,0,1-.491.312,2.609,2.609,0,0,1-.556.2A2.691,2.691,0,0,1,78.735.1a2.381,2.381,0,0,1-.962-.182,1.91,1.91,0,0,1-.7-.514,2.212,2.212,0,0,1-.426-.8,3.469,3.469,0,0,1-.143-1.024V-6.63h1.4v4.219a1.58,1.58,0,0,0,.309,1.04,1.153,1.153,0,0,0,.939.37,1.816,1.816,0,0,0,.861-.211,2.913,2.913,0,0,0,.751-.582V-6.63Zm5.661,1.2a.347.347,0,0,1-.117.13.311.311,0,0,1-.162.039.523.523,0,0,1-.241-.068Q87.172-5.4,87-5.48a2.636,2.636,0,0,0-.413-.153,2.02,2.02,0,0,0-.556-.068,1.677,1.677,0,0,0-.471.062,1.06,1.06,0,0,0-.358.176.794.794,0,0,0-.224.266.712.712,0,0,0-.078.328.555.555,0,0,0,.143.39,1.238,1.238,0,0,0,.377.27,3.657,3.657,0,0,0,.533.2q.3.091.611.195a6.163,6.163,0,0,1,.611.241,2.29,2.29,0,0,1,.533.335,1.524,1.524,0,0,1,.377.481,1.506,1.506,0,0,1,.143.686,2.182,2.182,0,0,1-.169.865,1.941,1.941,0,0,1-.494.689,2.272,2.272,0,0,1-.809.455A3.478,3.478,0,0,1,85.644.1a3.528,3.528,0,0,1-.666-.062,3.832,3.832,0,0,1-.611-.169,3.257,3.257,0,0,1-.539-.257,2.841,2.841,0,0,1-.445-.325l.325-.533a.45.45,0,0,1,.146-.153.4.4,0,0,1,.218-.055.486.486,0,0,1,.27.088q.133.088.312.192a2.471,2.471,0,0,0,.432.192,1.948,1.948,0,0,0,.631.088,1.735,1.735,0,0,0,.539-.075,1.081,1.081,0,0,0,.377-.2.823.823,0,0,0,.221-.3.885.885,0,0,0,.072-.354.607.607,0,0,0-.143-.416,1.212,1.212,0,0,0-.38-.28,3.508,3.508,0,0,0-.539-.208q-.3-.091-.614-.195a6.438,6.438,0,0,1-.614-.24,2.113,2.113,0,0,1-.539-.348,1.587,1.587,0,0,1-.38-.514,1.716,1.716,0,0,1-.143-.738,1.833,1.833,0,0,1,.159-.754,1.83,1.83,0,0,1,.468-.631,2.274,2.274,0,0,1,.76-.432A3.133,3.133,0,0,1,86-6.734a3.3,3.3,0,0,1,1.215.214,2.642,2.642,0,0,1,.917.585Z" transform="translate(8.577 17.253)"/><rect class="k" width="2.144" height="21.264" rx="1.072" transform="translate(8.577 3.19)"/></g></g><path class="f" d="M-590,3145.333h124.172" transform="translate(1205.36 -715.903)"/><g transform="translate(666.923 2403.825)"><g transform="translate(0)"><rect class="c" width="263" height="89" rx="6" transform="translate(0.077 0.175)"/><path class="e" d="M6,0H257a6,6,0,0,1,6,6V36a0,0,0,0,1,0,0H0a0,0,0,0,1,0,0V6A6,6,0,0,1,6,0Z" transform="translate(0.077 0.175)"/><g transform="translate(12.628 8.418)"><path class="c" d="M11.921-10.08V0H10.479V-6.909q0-.168.01-.367t.031-.4L7.28-1.694a.616.616,0,0,1-.581.371H6.468a.607.607,0,0,1-.581-.371l-3.29-6q.021.2.032.406t.01.378V0H1.2V-10.08H2.422a1.142,1.142,0,0,1,.336.038.423.423,0,0,1,.217.235L6.209-3.948q.105.2.2.416t.172.438q.084-.224.179-.444t.2-.424l3.185-5.845a.423.423,0,0,1,.217-.235,1.142,1.142,0,0,1,.336-.038Zm5.733,6.958a9.519,9.519,0,0,0-1.358.129,3.855,3.855,0,0,0-.9.259,1.182,1.182,0,0,0-.493.374.817.817,0,0,0-.15.476,1.042,1.042,0,0,0,.08.431.784.784,0,0,0,.224.294.911.911,0,0,0,.336.168,1.607,1.607,0,0,0,.424.053,2.164,2.164,0,0,0,1.012-.221,3.165,3.165,0,0,0,.822-.64Zm-3.99-3.024a4.088,4.088,0,0,1,2.884-1.127,2.831,2.831,0,0,1,1.1.2,2.192,2.192,0,0,1,.8.564,2.491,2.491,0,0,1,.5.865,3.406,3.406,0,0,1,.172,1.109V0h-.672a.655.655,0,0,1-.329-.067.51.51,0,0,1-.189-.269L17.78-.917a6.628,6.628,0,0,1-.539.438,3.4,3.4,0,0,1-.55.326,2.7,2.7,0,0,1-.609.2,3.591,3.591,0,0,1-.718.067,2.656,2.656,0,0,1-.809-.119,1.775,1.775,0,0,1-.647-.361,1.705,1.705,0,0,1-.431-.6,2.068,2.068,0,0,1-.158-.84,1.623,1.623,0,0,1,.22-.8,2.013,2.013,0,0,1,.728-.7,4.719,4.719,0,0,1,1.337-.515,9.713,9.713,0,0,1,2.047-.231v-.476a1.711,1.711,0,0,0-.329-1.148,1.212,1.212,0,0,0-.966-.378,2.119,2.119,0,0,0-.728.109,3.287,3.287,0,0,0-.511.234q-.217.126-.385.235a.647.647,0,0,1-.357.109.428.428,0,0,1-.263-.081.666.666,0,0,1-.178-.2Zm8.631.329a3.158,3.158,0,0,1,.812-1.068,1.747,1.747,0,0,1,1.141-.388,1.728,1.728,0,0,1,.434.052,1.22,1.22,0,0,1,.364.158l-.1,1.134a.282.282,0,0,1-.088.165.253.253,0,0,1-.157.045,1.689,1.689,0,0,1-.3-.038,2.14,2.14,0,0,0-.413-.039,1.572,1.572,0,0,0-.557.091,1.345,1.345,0,0,0-.434.266,1.79,1.79,0,0,0-.34.427,4.119,4.119,0,0,0-.273.574V0H20.874V-7.14h.875a.475.475,0,0,1,.329.088.538.538,0,0,1,.126.3Zm5.25-4.543v6.006h.322a.645.645,0,0,0,.252-.042.558.558,0,0,0,.2-.175l2-2.289a.746.746,0,0,1,.231-.21.658.658,0,0,1,.322-.07h1.365L29.834-4.424a1.831,1.831,0,0,1-.462.434,1.31,1.31,0,0,1,.245.221,2.423,2.423,0,0,1,.2.276L32.389,0H31.045a.742.742,0,0,1-.312-.06.538.538,0,0,1-.228-.221l-2.065-2.8a.527.527,0,0,0-.21-.207.832.832,0,0,0-.315-.045h-.371V0H26.04V-10.36ZM37.653-4.375a2.212,2.212,0,0,0-.108-.7,1.647,1.647,0,0,0-.319-.567,1.452,1.452,0,0,0-.521-.378,1.773,1.773,0,0,0-.717-.136,1.741,1.741,0,0,0-1.288.469,2.275,2.275,0,0,0-.6,1.316Zm-3.591.924A3.586,3.586,0,0,0,34.251-2.4a2.172,2.172,0,0,0,.431.739,1.675,1.675,0,0,0,.644.438,2.322,2.322,0,0,0,.837.143,2.55,2.55,0,0,0,.763-.1,3.582,3.582,0,0,0,.56-.224q.238-.122.406-.224a.606.606,0,0,1,.308-.1.321.321,0,0,1,.28.14l.427.553a2.709,2.709,0,0,1-.6.532,3.507,3.507,0,0,1-.714.354,4.034,4.034,0,0,1-.777.2,5.266,5.266,0,0,1-.777.06,3.734,3.734,0,0,1-1.375-.249,3.059,3.059,0,0,1-1.1-.731,3.377,3.377,0,0,1-.728-1.2,4.753,4.753,0,0,1-.262-1.645A4.02,4.02,0,0,1,32.806-5.1a3.306,3.306,0,0,1,.672-1.12,3.155,3.155,0,0,1,1.064-.753,3.476,3.476,0,0,1,1.417-.276,3.391,3.391,0,0,1,1.218.213,2.67,2.67,0,0,1,.966.627A2.881,2.881,0,0,1,38.777-5.4,3.812,3.812,0,0,1,39-4.039a.96.96,0,0,1-.077.469.308.308,0,0,1-.28.119ZM47.271,0H45.766V-5.957H42.287V-1.9a.832.832,0,0,0,.189.588.656.656,0,0,0,.5.2.888.888,0,0,0,.3-.046,1.361,1.361,0,0,0,.217-.1q.091-.052.157-.1a.23.23,0,0,1,.13-.045.229.229,0,0,1,.2.14l.448.735a2.442,2.442,0,0,1-.826.473,2.98,2.98,0,0,1-.98.165,1.806,1.806,0,0,1-1.368-.5,1.957,1.957,0,0,1-.479-1.41V-5.957H40a.317.317,0,0,1-.217-.08.306.306,0,0,1-.091-.242v-.609l1.155-.168.329-2.065a.4.4,0,0,1,.119-.193.328.328,0,0,1,.224-.074h.77v2.345h4.984Zm.308-9.331a.917.917,0,0,1-.08.381,1.024,1.024,0,0,1-.221.315,1.074,1.074,0,0,1-.326.217.966.966,0,0,1-.389.08.917.917,0,0,1-.382-.08,1.055,1.055,0,0,1-.315-.217,1.055,1.055,0,0,1-.217-.315.917.917,0,0,1-.081-.381.983.983,0,0,1,.081-.4,1.03,1.03,0,0,1,.217-.322,1.055,1.055,0,0,1,.315-.217.917.917,0,0,1,.382-.081.966.966,0,0,1,.389.081,1.074,1.074,0,0,1,.326.217,1,1,0,0,1,.221.322A.983.983,0,0,1,47.579-9.331Zm3,3.136a4.563,4.563,0,0,1,.479-.431,3.192,3.192,0,0,1,.528-.332,2.826,2.826,0,0,1,.6-.217,2.886,2.886,0,0,1,.686-.077,2.539,2.539,0,0,1,1.033.2,2.064,2.064,0,0,1,.749.553,2.382,2.382,0,0,1,.458.858,3.736,3.736,0,0,1,.154,1.1V0h-1.5V-4.543a1.7,1.7,0,0,0-.332-1.12,1.242,1.242,0,0,0-1.012-.4,1.946,1.946,0,0,0-.935.231,3.205,3.205,0,0,0-.808.63V0H49.168V-7.14h.91a.37.37,0,0,1,.392.287ZM59.57-3.633a1.409,1.409,0,0,0,1.05-.357,1.273,1.273,0,0,0,.35-.931,1.244,1.244,0,0,0-.35-.931A1.444,1.444,0,0,0,59.57-6.2a1.446,1.446,0,0,0-1.047.343,1.237,1.237,0,0,0-.354.931,1.439,1.439,0,0,0,.091.518,1.131,1.131,0,0,0,.266.409,1.191,1.191,0,0,0,.438.266A1.783,1.783,0,0,0,59.57-3.633ZM61.663.35a.531.531,0,0,0-.136-.381.91.91,0,0,0-.368-.224,2.642,2.642,0,0,0-.539-.119q-.308-.038-.654-.056l-.707-.035q-.361-.017-.7-.067a1.853,1.853,0,0,0-.549.42A.837.837,0,0,0,57.8.455a.752.752,0,0,0,.109.392.917.917,0,0,0,.336.315,2,2,0,0,0,.581.21,4.054,4.054,0,0,0,.85.077,2.878,2.878,0,0,0,1.491-.308A.91.91,0,0,0,61.663.35Zm1.512-7.231v.56q0,.28-.336.343l-.714.119a2.183,2.183,0,0,1,.182.9A2.158,2.158,0,0,1,62.1-4a2.146,2.146,0,0,1-.57.728,2.574,2.574,0,0,1-.868.462,3.57,3.57,0,0,1-1.092.161,3.835,3.835,0,0,1-.437-.025q-.214-.024-.417-.066a.988.988,0,0,0-.3.252.456.456,0,0,0-.1.273.367.367,0,0,0,.2.343,1.6,1.6,0,0,0,.535.161,6.783,6.783,0,0,0,.759.063q.427.014.868.049a8.171,8.171,0,0,1,.868.116,2.5,2.5,0,0,1,.76.266,1.49,1.49,0,0,1,.535.5,1.489,1.489,0,0,1,.2.819,1.925,1.925,0,0,1-.231.9,2.43,2.43,0,0,1-.668.784,3.46,3.46,0,0,1-1.068.55,4.6,4.6,0,0,1-1.435.206,5.555,5.555,0,0,1-1.389-.154,3.266,3.266,0,0,1-.987-.416,1.787,1.787,0,0,1-.588-.606A1.439,1.439,0,0,1,56.49.651a1.248,1.248,0,0,1,.319-.861,2.123,2.123,0,0,1,.865-.56,1.222,1.222,0,0,1-.472-.385,1.069,1.069,0,0,1-.179-.644,1.185,1.185,0,0,1,.231-.658,1.809,1.809,0,0,1,.693-.581,2.276,2.276,0,0,1-.84-.781A2.081,2.081,0,0,1,56.8-4.956,2.174,2.174,0,0,1,57-5.915a2.11,2.11,0,0,1,.577-.728,2.649,2.649,0,0,1,.878-.462,3.653,3.653,0,0,1,1.11-.161,3.236,3.236,0,0,1,1.61.385Z" transform="translate(0.449 13.757)"/><text class="l" transform="translate(80.449 13.757)"><tspan x="0" y="0">0</tspan></text></g></g><g transform="translate(7.366 42.092)"><rect class="m" width="215" height="38" rx="4" transform="translate(-0.289 0.083)"/><path class="n" d="M6.531-3.78,5.145-7.462A10.194,10.194,0,0,1,4.8-8.547q-.077.329-.168.606t-.168.486L3.08-3.78ZM9.632,0H8.365a.536.536,0,0,1-.35-.109.705.705,0,0,1-.2-.27L6.972-2.6H2.632L1.792-.378a.67.67,0,0,1-.2.259A.522.522,0,0,1,1.246,0H-.021l4-10.08H5.635Zm5.3-5.383a1.769,1.769,0,0,0-.693-.567,2.068,2.068,0,0,0-.819-.161,1.641,1.641,0,0,0-1.379.647,3.11,3.11,0,0,0-.5,1.915,4.868,4.868,0,0,0,.112,1.124,2.173,2.173,0,0,0,.322.76,1.241,1.241,0,0,0,.511.427,1.663,1.663,0,0,0,.679.133,1.9,1.9,0,0,0,.991-.248,2.853,2.853,0,0,0,.774-.7Zm1.5-4.977V0h-.91a.365.365,0,0,1-.385-.287l-.133-.777a3.772,3.772,0,0,1-1.019.847,2.653,2.653,0,0,1-1.326.322,2.436,2.436,0,0,1-1.092-.242,2.35,2.35,0,0,1-.84-.7,3.408,3.408,0,0,1-.543-1.145A5.777,5.777,0,0,1,10-3.549a4.9,4.9,0,0,1,.214-1.477,3.605,3.605,0,0,1,.613-1.18,2.845,2.845,0,0,1,.97-.784,2.831,2.831,0,0,1,1.278-.283,2.589,2.589,0,0,1,1.071.2,2.6,2.6,0,0,1,.791.557V-10.36Zm6.391,4.977a1.769,1.769,0,0,0-.693-.567,2.068,2.068,0,0,0-.819-.161,1.641,1.641,0,0,0-1.379.647,3.11,3.11,0,0,0-.5,1.915,4.868,4.868,0,0,0,.112,1.124,2.173,2.173,0,0,0,.322.76,1.241,1.241,0,0,0,.511.427,1.663,1.663,0,0,0,.679.133,1.9,1.9,0,0,0,.99-.248,2.853,2.853,0,0,0,.774-.7Zm1.5-4.977V0h-.91a.365.365,0,0,1-.385-.287L22.9-1.064a3.772,3.772,0,0,1-1.018.847,2.653,2.653,0,0,1-1.326.322,2.436,2.436,0,0,1-1.092-.242,2.35,2.35,0,0,1-.84-.7,3.408,3.408,0,0,1-.542-1.145,5.776,5.776,0,0,1-.193-1.565,4.9,4.9,0,0,1,.214-1.477,3.605,3.605,0,0,1,.612-1.18,2.845,2.845,0,0,1,.969-.784,2.831,2.831,0,0,1,1.278-.283,2.589,2.589,0,0,1,1.071.2,2.6,2.6,0,0,1,.791.557V-10.36Zm13.944.28V0h-.833a.714.714,0,0,1-.322-.067.753.753,0,0,1-.252-.22L31.332-7.4q.021.2.031.4t.01.367V0H29.932V-10.08h.854a1.288,1.288,0,0,1,.178.01.513.513,0,0,1,.137.038.4.4,0,0,1,.119.084,1.314,1.314,0,0,1,.119.14l5.544,7.119q-.021-.217-.032-.427t-.01-.392V-10.08Zm6.587,5.7a2.212,2.212,0,0,0-.108-.7,1.647,1.647,0,0,0-.319-.567,1.452,1.452,0,0,0-.521-.378A1.773,1.773,0,0,0,43.2-6.16a1.741,1.741,0,0,0-1.288.469,2.275,2.275,0,0,0-.6,1.316Zm-3.591.924A3.586,3.586,0,0,0,41.461-2.4a2.172,2.172,0,0,0,.431.739,1.675,1.675,0,0,0,.644.438,2.322,2.322,0,0,0,.837.143,2.55,2.55,0,0,0,.763-.1,3.582,3.582,0,0,0,.56-.224q.238-.122.406-.224a.606.606,0,0,1,.308-.1.321.321,0,0,1,.28.14l.427.553a2.709,2.709,0,0,1-.6.532A3.507,3.507,0,0,1,44.8-.15a4.034,4.034,0,0,1-.777.2,5.266,5.266,0,0,1-.777.06,3.734,3.734,0,0,1-1.375-.249,3.059,3.059,0,0,1-1.1-.731,3.377,3.377,0,0,1-.728-1.2,4.753,4.753,0,0,1-.262-1.645A4.02,4.02,0,0,1,40.015-5.1a3.306,3.306,0,0,1,.672-1.12,3.155,3.155,0,0,1,1.064-.753,3.476,3.476,0,0,1,1.417-.276,3.391,3.391,0,0,1,1.218.213,2.67,2.67,0,0,1,.966.627A2.881,2.881,0,0,1,45.986-5.4a3.812,3.812,0,0,1,.228,1.362.96.96,0,0,1-.077.469.308.308,0,0,1-.28.119ZM57.561-7.14,55.272,0h-1.2q-.21,0-.294-.273L52.36-4.718q-.056-.189-.1-.378t-.081-.371q-.077.378-.189.756L50.547-.273A.324.324,0,0,1,50.218,0H49.077L46.788-7.14h1.19a.467.467,0,0,1,.29.088.4.4,0,0,1,.151.207l1.19,4.158q.07.287.122.556t.095.535q.07-.266.147-.535t.161-.556l1.337-4.179a.377.377,0,0,1,.143-.207.428.428,0,0,1,.263-.08h.658a.455.455,0,0,1,.273.08.372.372,0,0,1,.147.207l1.3,4.179q.084.287.157.56t.137.546q.049-.266.1-.539t.133-.567L56-6.846a.427.427,0,0,1,.154-.21.442.442,0,0,1,.273-.084ZM68.649-8.715H65.506V0H63.875V-8.715h-3.15V-10.08h7.924Zm3.367,5.593a9.519,9.519,0,0,0-1.358.129,3.855,3.855,0,0,0-.9.259,1.182,1.182,0,0,0-.493.374.817.817,0,0,0-.15.476,1.043,1.043,0,0,0,.08.431.785.785,0,0,0,.224.294.911.911,0,0,0,.336.168,1.607,1.607,0,0,0,.424.053,2.164,2.164,0,0,0,1.011-.221,3.165,3.165,0,0,0,.823-.64Zm-3.99-3.024A4.088,4.088,0,0,1,70.91-7.273a2.831,2.831,0,0,1,1.1.2,2.191,2.191,0,0,1,.805.564,2.491,2.491,0,0,1,.5.865,3.406,3.406,0,0,1,.172,1.109V0h-.672a.655.655,0,0,1-.329-.067.51.51,0,0,1-.189-.269l-.147-.581A6.629,6.629,0,0,1,71.6-.48a3.4,3.4,0,0,1-.549.326,2.7,2.7,0,0,1-.609.2,3.591,3.591,0,0,1-.717.067,2.656,2.656,0,0,1-.809-.119,1.775,1.775,0,0,1-.647-.361,1.705,1.705,0,0,1-.43-.6,2.067,2.067,0,0,1-.158-.84,1.623,1.623,0,0,1,.22-.8,2.013,2.013,0,0,1,.728-.7,4.719,4.719,0,0,1,1.337-.515,9.713,9.713,0,0,1,2.048-.231v-.476a1.711,1.711,0,0,0-.329-1.148,1.212,1.212,0,0,0-.966-.378,2.119,2.119,0,0,0-.728.109,3.287,3.287,0,0,0-.511.234q-.217.126-.385.235a.647.647,0,0,1-.357.109.428.428,0,0,1-.263-.081.666.666,0,0,1-.178-.2Zm11.473.3a.374.374,0,0,1-.126.14.335.335,0,0,1-.175.042.563.563,0,0,1-.259-.074Q78.8-5.81,78.61-5.9a2.839,2.839,0,0,0-.445-.164,2.176,2.176,0,0,0-.6-.074,1.806,1.806,0,0,0-.507.067,1.142,1.142,0,0,0-.385.189.855.855,0,0,0-.242.287.766.766,0,0,0-.084.354.6.6,0,0,0,.154.42,1.333,1.333,0,0,0,.406.29,3.939,3.939,0,0,0,.574.22q.322.1.658.21a6.638,6.638,0,0,1,.658.259,2.467,2.467,0,0,1,.574.36,1.642,1.642,0,0,1,.406.518,1.622,1.622,0,0,1,.154.739,2.35,2.35,0,0,1-.182.931,2.091,2.091,0,0,1-.532.742,2.447,2.447,0,0,1-.871.49,3.746,3.746,0,0,1-1.194.175,3.8,3.8,0,0,1-.717-.067,4.127,4.127,0,0,1-.658-.182A3.507,3.507,0,0,1,75.2-.413a3.059,3.059,0,0,1-.479-.35l.35-.574a.485.485,0,0,1,.158-.164.432.432,0,0,1,.234-.059.524.524,0,0,1,.291.094q.143.095.336.207a2.661,2.661,0,0,0,.465.206,2.1,2.1,0,0,0,.679.095,1.868,1.868,0,0,0,.581-.081,1.164,1.164,0,0,0,.406-.22.886.886,0,0,0,.238-.319.953.953,0,0,0,.077-.381.653.653,0,0,0-.154-.448,1.306,1.306,0,0,0-.41-.3,3.778,3.778,0,0,0-.581-.224q-.326-.1-.662-.21a6.933,6.933,0,0,1-.661-.259,2.276,2.276,0,0,1-.581-.374,1.71,1.71,0,0,1-.41-.553,1.848,1.848,0,0,1-.154-.795,1.973,1.973,0,0,1,.172-.812,1.971,1.971,0,0,1,.5-.679,2.449,2.449,0,0,1,.819-.465,3.374,3.374,0,0,1,1.124-.171,3.553,3.553,0,0,1,1.309.231,2.846,2.846,0,0,1,.987.63Zm3.353-4.515v6.006h.322a.645.645,0,0,0,.252-.042.558.558,0,0,0,.2-.175l2-2.289a.746.746,0,0,1,.231-.21.658.658,0,0,1,.322-.07h1.365L85.141-4.424a1.831,1.831,0,0,1-.462.434,1.31,1.31,0,0,1,.245.221,2.423,2.423,0,0,1,.2.276L87.7,0H86.352a.742.742,0,0,1-.312-.06.538.538,0,0,1-.227-.221l-2.065-2.8a.527.527,0,0,0-.21-.207.832.832,0,0,0-.315-.045h-.371V0h-1.5V-10.36Z" transform="translate(31.601 23.471)"/><path class="n" d="M237.447,192.48H233.1v-4.352a.833.833,0,0,0-1.615,0v4.352h-4.352a.833.833,0,0,0,0,1.615h4.352v4.352a.833.833,0,0,0,1.615,0V194.1h4.352a.833.833,0,0,0,0-1.615Z" transform="translate(-213.315 -174.346)"/></g></g></g><line class="o" x2="104" transform="translate(133.5 2051.5)"/><line class="o" x2="73" transform="translate(446.5 2146.5)"/><path class="o" d="M29.5,0h54" transform="translate(463 2195.5)"/><line class="o" x2="101" transform="translate(372.5 2304.5)"/><line class="o" x2="114" transform="translate(141.5 2304.5)"/><line class="o" x2="62" transform="translate(499.5 2244.5)"/><line class="o" x2="143" transform="translate(166.5 2097.5)"/><rect class="e" width="75" height="21" rx="4" transform="translate(557 2185)"/><path class="c" d="M-61.3-8.676a1.492,1.492,0,0,1,.18.009.422.422,0,0,1,.129.036.433.433,0,0,1,.111.078,1.251,1.251,0,0,1,.12.135l4.554,5.8q-.024-.21-.033-.411t-.009-.375V-8.676h1.422V0h-.834a.739.739,0,0,1-.318-.06.708.708,0,0,1-.246-.216l-4.536-5.778q.018.192.027.381t.009.345V0h-1.422V-8.676Zm10.77,2.424a3.374,3.374,0,0,1,1.251.222,2.7,2.7,0,0,1,.957.63,2.789,2.789,0,0,1,.612,1A3.789,3.789,0,0,1-47.49-3.09a3.807,3.807,0,0,1-.216,1.32,2.85,2.85,0,0,1-.612,1,2.659,2.659,0,0,1-.957.636A3.374,3.374,0,0,1-50.526.09,3.4,3.4,0,0,1-51.78-.132a2.683,2.683,0,0,1-.963-.636,2.863,2.863,0,0,1-.618-1,3.76,3.76,0,0,1-.219-1.32A3.742,3.742,0,0,1-53.361-4.4a2.8,2.8,0,0,1,.618-1,2.722,2.722,0,0,1,.963-.63A3.4,3.4,0,0,1-50.526-6.252Zm0,5.2a1.3,1.3,0,0,0,1.137-.516,2.587,2.587,0,0,0,.369-1.512A2.617,2.617,0,0,0-49.389-4.6a1.3,1.3,0,0,0-1.137-.522,1.316,1.316,0,0,0-1.152.525,2.6,2.6,0,0,0-.372,1.515,2.573,2.573,0,0,0,.372,1.509A1.321,1.321,0,0,0-50.526-1.05ZM-44.31.1a1.619,1.619,0,0,1-1.23-.453,1.739,1.739,0,0,1-.432-1.251V-5.046H-46.6a.3.3,0,0,1-.207-.078.3.3,0,0,1-.087-.234v-.588l.99-.162.312-1.68a.3.3,0,0,1,.111-.186.352.352,0,0,1,.219-.066h.768V-6.1h1.62v1.056h-1.62V-1.71a.654.654,0,0,0,.144.45.488.488,0,0,0,.384.162.7.7,0,0,0,.231-.033,1.271,1.271,0,0,0,.162-.069q.069-.036.123-.069a.206.206,0,0,1,.108-.033.17.17,0,0,1,.108.033.5.5,0,0,1,.09.1l.444.72a2.244,2.244,0,0,1-.744.408A2.769,2.769,0,0,1-44.31.1ZM-34.638-7.1a.445.445,0,0,1-.153.186A.385.385,0,0,1-35-6.858a.526.526,0,0,1-.27-.093q-.15-.093-.354-.207a2.891,2.891,0,0,0-.477-.207,2,2,0,0,0-.645-.093,1.9,1.9,0,0,0-.585.081,1.238,1.238,0,0,0-.42.225A.9.9,0,0,0-38-6.807a1.133,1.133,0,0,0-.084.441.767.767,0,0,0,.171.51,1.428,1.428,0,0,0,.453.348,4.2,4.2,0,0,0,.642.258q.36.114.735.243a7.078,7.078,0,0,1,.735.3,2.547,2.547,0,0,1,.642.432,1.958,1.958,0,0,1,.453.639,2.219,2.219,0,0,1,.171.918,2.991,2.991,0,0,1-.2,1.1,2.54,2.54,0,0,1-.588.894,2.77,2.77,0,0,1-.945.6A3.479,3.479,0,0,1-37.1.1a4.121,4.121,0,0,1-.816-.081,4.3,4.3,0,0,1-.771-.231,4.026,4.026,0,0,1-.69-.36,3.4,3.4,0,0,1-.573-.468l.468-.774a.6.6,0,0,1,.159-.141.388.388,0,0,1,.207-.057.572.572,0,0,1,.324.123q.174.123.411.273a3.154,3.154,0,0,0,.558.273,2.157,2.157,0,0,0,.771.123,1.583,1.583,0,0,0,1.068-.327A1.174,1.174,0,0,0-35.6-2.49a.872.872,0,0,0-.171-.558,1.381,1.381,0,0,0-.453-.363,3.382,3.382,0,0,0-.642-.249q-.36-.1-.732-.222a6.312,6.312,0,0,1-.732-.288,2.371,2.371,0,0,1-.642-.438,1.993,1.993,0,0,1-.453-.675,2.572,2.572,0,0,1-.171-1,2.365,2.365,0,0,1,.189-.924,2.366,2.366,0,0,1,.552-.8,2.725,2.725,0,0,1,.891-.558,3.244,3.244,0,0,1,1.206-.21,4.047,4.047,0,0,1,1.416.24,3.2,3.2,0,0,1,1.1.672ZM-30.912.1a1.619,1.619,0,0,1-1.23-.453,1.739,1.739,0,0,1-.432-1.251V-5.046H-33.2a.3.3,0,0,1-.207-.078.3.3,0,0,1-.087-.234v-.588l.99-.162.312-1.68a.3.3,0,0,1,.111-.186.352.352,0,0,1,.219-.066h.768V-6.1h1.62v1.056h-1.62V-1.71a.654.654,0,0,0,.144.45.488.488,0,0,0,.384.162.7.7,0,0,0,.231-.033,1.271,1.271,0,0,0,.162-.069q.069-.036.123-.069A.206.206,0,0,1-29.94-1.3a.17.17,0,0,1,.108.033.5.5,0,0,1,.09.1l.444.72a2.244,2.244,0,0,1-.744.408A2.769,2.769,0,0,1-30.912.1Zm7.446-.1h-.666a.717.717,0,0,1-.33-.063.405.405,0,0,1-.18-.255l-.132-.438a5.083,5.083,0,0,1-.459.369A2.787,2.787,0,0,1-25.7-.12a2.372,2.372,0,0,1-.51.162,3.068,3.068,0,0,1-.6.054,2.357,2.357,0,0,1-.72-.105A1.551,1.551,0,0,1-28.1-.325a1.435,1.435,0,0,1-.369-.524,1.863,1.863,0,0,1-.132-.728,1.441,1.441,0,0,1,.183-.689,1.725,1.725,0,0,1,.609-.614,3.888,3.888,0,0,1,1.134-.455,7.243,7.243,0,0,1,1.758-.181v-.363a1.376,1.376,0,0,0-.261-.922.953.953,0,0,0-.759-.3,1.837,1.837,0,0,0-.6.084,2.321,2.321,0,0,0-.417.189q-.177.105-.327.189a.664.664,0,0,1-.33.084.429.429,0,0,1-.258-.078.614.614,0,0,1-.174-.192l-.27-.474a3.661,3.661,0,0,1,2.562-.972,2.475,2.475,0,0,1,.963.177,2.047,2.047,0,0,1,.717.492,2.106,2.106,0,0,1,.447.753,2.894,2.894,0,0,1,.153.96Zm-2.88-.924a2,2,0,0,0,.42-.041,1.608,1.608,0,0,0,.363-.124,1.935,1.935,0,0,0,.33-.2,2.98,2.98,0,0,0,.321-.286V-2.61A6.017,6.017,0,0,0-26-2.528a2.861,2.861,0,0,0-.7.209.9.9,0,0,0-.375.3.659.659,0,0,0-.111.369.65.65,0,0,0,.231.562A1,1,0,0,0-26.346-.924ZM-22.008,0V-6.156h.87a.466.466,0,0,1,.318.084.483.483,0,0,1,.12.288l.09.744a2.925,2.925,0,0,1,.774-.9,1.629,1.629,0,0,1,1-.33,1.287,1.287,0,0,1,.756.21l-.192,1.11a.229.229,0,0,1-.078.153.264.264,0,0,1-.162.045,1.01,1.01,0,0,1-.246-.042,1.646,1.646,0,0,0-.414-.042,1.257,1.257,0,0,0-.792.255,1.963,1.963,0,0,0-.558.747V0Zm6.924.1a1.619,1.619,0,0,1-1.23-.453,1.739,1.739,0,0,1-.432-1.251V-5.046h-.624a.3.3,0,0,1-.207-.078.3.3,0,0,1-.087-.234v-.588l.99-.162.312-1.68a.3.3,0,0,1,.111-.186.352.352,0,0,1,.219-.066h.768V-6.1h1.62v1.056h-1.62V-1.71a.654.654,0,0,0,.144.45.488.488,0,0,0,.384.162.7.7,0,0,0,.231-.033,1.271,1.271,0,0,0,.162-.069q.069-.036.123-.069a.206.206,0,0,1,.108-.033A.17.17,0,0,1-14-1.269a.5.5,0,0,1,.09.1l.444.72a2.244,2.244,0,0,1-.744.408A2.769,2.769,0,0,1-15.084.1Zm5.166-6.348a2.989,2.989,0,0,1,1.071.186A2.345,2.345,0,0,1-8-5.523a2.481,2.481,0,0,1,.552.876,3.308,3.308,0,0,1,.2,1.185,2.144,2.144,0,0,1-.015.279.446.446,0,0,1-.054.174.219.219,0,0,1-.105.09.448.448,0,0,1-.168.027h-3.8A2.12,2.12,0,0,0-10.89-1.5a1.59,1.59,0,0,0,1.176.444,2.037,2.037,0,0,0,.621-.084,2.912,2.912,0,0,0,.456-.186q.2-.1.342-.186A.574.574,0,0,1-8.01-1.6a.321.321,0,0,1,.156.036.345.345,0,0,1,.114.1l.432.54a2.47,2.47,0,0,1-.552.483A3.1,3.1,0,0,1-8.5-.123a3.493,3.493,0,0,1-.678.165A4.855,4.855,0,0,1-9.846.09,3.288,3.288,0,0,1-11.04-.123,2.673,2.673,0,0,1-12-.753a2.956,2.956,0,0,1-.642-1.032,3.994,3.994,0,0,1-.234-1.425,3.408,3.408,0,0,1,.2-1.185,2.849,2.849,0,0,1,.585-.966,2.754,2.754,0,0,1,.93-.651A3.063,3.063,0,0,1-9.918-6.252Zm.03,1.062a1.37,1.37,0,0,0-1.014.366,1.805,1.805,0,0,0-.468,1.038h2.784a1.847,1.847,0,0,0-.078-.543,1.253,1.253,0,0,0-.24-.447,1.136,1.136,0,0,0-.408-.3A1.39,1.39,0,0,0-9.888-5.19ZM-1.716,0a.364.364,0,0,1-.378-.27l-.12-.594a3.68,3.68,0,0,1-.4.39,2.542,2.542,0,0,1-.453.3,2.36,2.36,0,0,1-.522.2,2.507,2.507,0,0,1-.6.069,2.037,2.037,0,0,1-.924-.21,2.059,2.059,0,0,1-.723-.609,2.919,2.919,0,0,1-.468-.987A4.985,4.985,0,0,1-6.474-3.06a4.2,4.2,0,0,1,.186-1.272,3.1,3.1,0,0,1,.534-1.02,2.492,2.492,0,0,1,.834-.675A2.408,2.408,0,0,1-3.828-6.27a2.136,2.136,0,0,1,.882.165,2.311,2.311,0,0,1,.654.441V-8.916H-.81V0ZM-3.69-1.086A1.516,1.516,0,0,0-2.9-1.278a2.334,2.334,0,0,0,.612-.546v-2.76a1.458,1.458,0,0,0-.549-.432,1.619,1.619,0,0,0-.639-.126,1.436,1.436,0,0,0-.609.126,1.191,1.191,0,0,0-.462.381,1.866,1.866,0,0,0-.291.648,3.72,3.72,0,0,0-.1.927,4.115,4.115,0,0,0,.087.915,1.8,1.8,0,0,0,.249.612.949.949,0,0,0,.4.342A1.261,1.261,0,0,0-3.69-1.086Z" transform="translate(625 2200)"/><g transform="translate(579 2234)"><rect class="p" width="63.426" height="16.988" rx="4" transform="translate(-4.468 2.102)"/><path class="c" d="M-49.848,0h-1.62V-8.676h1.62Zm1.866,0V-6.156h.906a.364.364,0,0,1,.378.27l.1.486a3.376,3.376,0,0,1,.393-.348,2.744,2.744,0,0,1,.438-.27,2.232,2.232,0,0,1,.5-.174,2.6,2.6,0,0,1,.576-.06,2.207,2.207,0,0,1,.894.171,1.766,1.766,0,0,1,.651.48,2.11,2.11,0,0,1,.4.738,3.136,3.136,0,0,1,.135.945V0H-44.1V-3.918a1.315,1.315,0,0,0-.261-.873.967.967,0,0,0-.783-.309,1.543,1.543,0,0,0-.72.174,2.58,2.58,0,0,0-.636.474V0Zm10.89-3.39V0h-1.614V-8.676h2.646a5.527,5.527,0,0,1,1.521.183A2.9,2.9,0,0,1-33.5-7.98a1.98,1.98,0,0,1,.594.789,2.631,2.631,0,0,1,.189,1.011,2.62,2.62,0,0,1-.129.828,2.4,2.4,0,0,1-.372.708,2.507,2.507,0,0,1-.6.558,3.145,3.145,0,0,1-.813.384,1.6,1.6,0,0,1,.528.5L-31.932,0h-1.452a.709.709,0,0,1-.357-.084.73.73,0,0,1-.249-.24L-35.814-3.1a.64.64,0,0,0-.225-.222A.788.788,0,0,0-36.4-3.39Zm0-1.158h1.008a2.5,2.5,0,0,0,.795-.114,1.537,1.537,0,0,0,.558-.315,1.265,1.265,0,0,0,.327-.477A1.649,1.649,0,0,0-34.3-6.06a1.232,1.232,0,0,0-.435-1.014,2.081,2.081,0,0,0-1.329-.354h-1.032Zm8.652-1.7a2.989,2.989,0,0,1,1.071.186,2.345,2.345,0,0,1,.843.543,2.481,2.481,0,0,1,.552.876,3.308,3.308,0,0,1,.2,1.185,2.144,2.144,0,0,1-.015.279.446.446,0,0,1-.054.174.219.219,0,0,1-.1.09.448.448,0,0,1-.168.027h-3.8a2.12,2.12,0,0,0,.51,1.392,1.59,1.59,0,0,0,1.176.444,2.037,2.037,0,0,0,.621-.084,2.912,2.912,0,0,0,.456-.186q.195-.1.342-.186a.574.574,0,0,1,.285-.084.321.321,0,0,1,.156.036.345.345,0,0,1,.114.1l.432.54a2.47,2.47,0,0,1-.552.483,3.1,3.1,0,0,1-.639.312A3.493,3.493,0,0,1-27.7.042a4.855,4.855,0,0,1-.669.048,3.288,3.288,0,0,1-1.194-.213,2.673,2.673,0,0,1-.96-.63,2.956,2.956,0,0,1-.642-1.032A3.994,3.994,0,0,1-31.4-3.21a3.408,3.408,0,0,1,.2-1.185,2.849,2.849,0,0,1,.585-.966,2.754,2.754,0,0,1,.93-.651A3.063,3.063,0,0,1-28.44-6.252Zm.03,1.062a1.37,1.37,0,0,0-1.014.366,1.805,1.805,0,0,0-.468,1.038h2.784a1.847,1.847,0,0,0-.078-.543,1.253,1.253,0,0,0-.24-.447,1.136,1.136,0,0,0-.408-.3A1.39,1.39,0,0,0-28.41-5.19ZM-21.684,0h-1.344l-2.448-6.156h1.23a.463.463,0,0,1,.273.078.4.4,0,0,1,.153.2l1.188,3.288q.1.288.171.564t.123.552q.054-.276.123-.552a5.2,5.2,0,0,1,.177-.564L-20.82-5.88a.405.405,0,0,1,.15-.2.429.429,0,0,1,.258-.078h1.17Zm4.9-6.156V0H-18.27V-6.156Zm.222-1.794a.844.844,0,0,1-.078.36.989.989,0,0,1-.207.294.989.989,0,0,1-.3.2.93.93,0,0,1-.372.075.894.894,0,0,1-.363-.075.962.962,0,0,1-.3-.2.972.972,0,0,1-.2-.294.873.873,0,0,1-.075-.36.93.93,0,0,1,.075-.372.952.952,0,0,1,.2-.3.962.962,0,0,1,.3-.2.894.894,0,0,1,.363-.075.93.93,0,0,1,.372.075.989.989,0,0,1,.3.2.968.968,0,0,1,.207.3A.9.9,0,0,1-16.566-7.95Zm4,1.7a2.989,2.989,0,0,1,1.071.186,2.345,2.345,0,0,1,.843.543,2.481,2.481,0,0,1,.552.876,3.308,3.308,0,0,1,.2,1.185,2.144,2.144,0,0,1-.015.279.446.446,0,0,1-.054.174.219.219,0,0,1-.1.09.448.448,0,0,1-.168.027h-3.8a2.12,2.12,0,0,0,.51,1.392,1.59,1.59,0,0,0,1.176.444,2.037,2.037,0,0,0,.621-.084,2.912,2.912,0,0,0,.456-.186q.2-.1.342-.186a.574.574,0,0,1,.285-.084.321.321,0,0,1,.156.036.345.345,0,0,1,.114.1l.432.54a2.47,2.47,0,0,1-.552.483,3.1,3.1,0,0,1-.639.312,3.493,3.493,0,0,1-.678.165A4.855,4.855,0,0,1-12.5.09a3.288,3.288,0,0,1-1.194-.213,2.673,2.673,0,0,1-.96-.63,2.956,2.956,0,0,1-.642-1.032,3.994,3.994,0,0,1-.234-1.425,3.408,3.408,0,0,1,.2-1.185,2.849,2.849,0,0,1,.585-.966,2.754,2.754,0,0,1,.93-.651A3.063,3.063,0,0,1-12.57-6.252Zm.03,1.062a1.37,1.37,0,0,0-1.014.366,1.805,1.805,0,0,0-.468,1.038h2.784a1.847,1.847,0,0,0-.078-.543,1.253,1.253,0,0,0-.24-.447,1.136,1.136,0,0,0-.408-.3A1.39,1.39,0,0,0-12.54-5.19Zm3.09-.966h1.176a.488.488,0,0,1,.282.078.335.335,0,0,1,.144.2l.882,3.288q.072.27.117.528t.087.516q.066-.258.141-.516t.159-.528l1.02-3.3a.372.372,0,0,1,.144-.2.419.419,0,0,1,.252-.078h.654a.449.449,0,0,1,.27.078.372.372,0,0,1,.144.2l1.008,3.36q.078.258.141.5t.123.489q.042-.258.093-.516t.129-.534l.912-3.288a.335.335,0,0,1,.144-.2.456.456,0,0,1,.264-.078H-.042L-1.992,0H-3.186q-.192,0-.276-.264l-1.11-3.558q-.054-.174-.1-.351t-.075-.351q-.036.18-.078.357t-.1.357L-6.042-.264A.325.325,0,0,1-6.366,0H-7.5Z" transform="translate(53 15)"/></g><g transform="translate(487 2294)"><rect class="q" width="62.22" height="18.926" rx="4" transform="translate(2.97 2.084)"/><path class="c" d="M-42.564,0h-1.248a.545.545,0,0,1-.345-.105.6.6,0,0,1-.195-.261L-45-2.136h-3.594l-.648,1.77a.568.568,0,0,1-.189.252A.531.531,0,0,1-49.776,0H-51.03l3.408-8.676h1.65ZM-48.18-3.276h2.766L-46.47-6.162q-.072-.192-.159-.453t-.171-.567q-.084.306-.165.57t-.159.462Zm10.752-1.578a.739.739,0,0,1-.129.132.3.3,0,0,1-.183.048.407.407,0,0,1-.222-.069q-.108-.069-.258-.156a1.929,1.929,0,0,0-.357-.156,1.64,1.64,0,0,0-.513-.069,1.565,1.565,0,0,0-.684.141,1.3,1.3,0,0,0-.489.405,1.825,1.825,0,0,0-.291.639,3.431,3.431,0,0,0-.1.849,3.329,3.329,0,0,0,.1.876,1.873,1.873,0,0,0,.3.645,1.3,1.3,0,0,0,.48.4,1.455,1.455,0,0,0,.636.135,1.577,1.577,0,0,0,.573-.087,1.808,1.808,0,0,0,.369-.192q.15-.105.261-.192a.393.393,0,0,1,.249-.087.3.3,0,0,1,.27.138l.426.54a2.679,2.679,0,0,1-.534.483,2.887,2.887,0,0,1-.6.312,3.031,3.031,0,0,1-.639.165A4.539,4.539,0,0,1-39.4.09a2.73,2.73,0,0,1-1.074-.213,2.507,2.507,0,0,1-.879-.621,2.993,2.993,0,0,1-.594-1,3.86,3.86,0,0,1-.219-1.347,3.915,3.915,0,0,1,.2-1.257,2.848,2.848,0,0,1,.573-1,2.627,2.627,0,0,1,.936-.663,3.224,3.224,0,0,1,1.284-.24,3.054,3.054,0,0,1,1.209.222,2.954,2.954,0,0,1,.933.636Zm5.724,0a.739.739,0,0,1-.129.132.3.3,0,0,1-.183.048.407.407,0,0,1-.222-.069q-.108-.069-.258-.156a1.929,1.929,0,0,0-.357-.156,1.64,1.64,0,0,0-.513-.069,1.565,1.565,0,0,0-.684.141,1.3,1.3,0,0,0-.489.405,1.825,1.825,0,0,0-.291.639,3.431,3.431,0,0,0-.1.849,3.329,3.329,0,0,0,.1.876,1.873,1.873,0,0,0,.3.645,1.3,1.3,0,0,0,.48.4,1.455,1.455,0,0,0,.636.135,1.577,1.577,0,0,0,.573-.087,1.808,1.808,0,0,0,.369-.192q.15-.105.261-.192A.393.393,0,0,1-31.95-1.6a.3.3,0,0,1,.27.138l.426.54a2.679,2.679,0,0,1-.534.483,2.887,2.887,0,0,1-.6.312,3.031,3.031,0,0,1-.639.165,4.539,4.539,0,0,1-.654.048,2.73,2.73,0,0,1-1.074-.213,2.507,2.507,0,0,1-.879-.621,2.993,2.993,0,0,1-.594-1,3.86,3.86,0,0,1-.219-1.347,3.915,3.915,0,0,1,.2-1.257,2.848,2.848,0,0,1,.573-1,2.627,2.627,0,0,1,.936-.663,3.224,3.224,0,0,1,1.284-.24,3.054,3.054,0,0,1,1.209.222,2.954,2.954,0,0,1,.933.636Zm3.942-1.4a2.989,2.989,0,0,1,1.071.186,2.345,2.345,0,0,1,.843.543,2.481,2.481,0,0,1,.552.876,3.308,3.308,0,0,1,.2,1.185,2.144,2.144,0,0,1-.015.279.446.446,0,0,1-.054.174.219.219,0,0,1-.1.09.448.448,0,0,1-.168.027h-3.8a2.12,2.12,0,0,0,.51,1.392,1.59,1.59,0,0,0,1.176.444,2.037,2.037,0,0,0,.621-.084,2.912,2.912,0,0,0,.456-.186q.195-.1.342-.186a.574.574,0,0,1,.285-.084.321.321,0,0,1,.156.036.345.345,0,0,1,.114.1l.432.54a2.47,2.47,0,0,1-.552.483,3.1,3.1,0,0,1-.639.312,3.493,3.493,0,0,1-.678.165A4.855,4.855,0,0,1-27.69.09a3.288,3.288,0,0,1-1.194-.213,2.673,2.673,0,0,1-.96-.63,2.956,2.956,0,0,1-.642-1.032A3.994,3.994,0,0,1-30.72-3.21a3.408,3.408,0,0,1,.2-1.185,2.849,2.849,0,0,1,.585-.966A2.754,2.754,0,0,1-29-6.012,3.063,3.063,0,0,1-27.762-6.252Zm.03,1.062a1.37,1.37,0,0,0-1.014.366,1.805,1.805,0,0,0-.468,1.038h2.784a1.847,1.847,0,0,0-.078-.543,1.253,1.253,0,0,0-.24-.447,1.136,1.136,0,0,0-.408-.3A1.39,1.39,0,0,0-27.732-5.19Zm3.84,7.2V-6.156h.906a.443.443,0,0,1,.246.066.308.308,0,0,1,.132.2l.12.57a3.107,3.107,0,0,1,.855-.69A2.322,2.322,0,0,1-20.5-6.27a2.018,2.018,0,0,1,.921.21,2.067,2.067,0,0,1,.72.609,2.921,2.921,0,0,1,.468.984,4.951,4.951,0,0,1,.165,1.341,4.217,4.217,0,0,1-.186,1.278,3.127,3.127,0,0,1-.531,1.02,2.453,2.453,0,0,1-.834.675A2.427,2.427,0,0,1-20.874.09a2.2,2.2,0,0,1-.885-.159A2.166,2.166,0,0,1-22.41-.51V2.01Zm2.88-7.11a1.514,1.514,0,0,0-.789.2,2.282,2.282,0,0,0-.609.549V-1.6a1.411,1.411,0,0,0,.549.435,1.653,1.653,0,0,0,.639.123,1.436,1.436,0,0,0,.609-.126,1.182,1.182,0,0,0,.462-.384A1.9,1.9,0,0,0-19.86-2.2a3.72,3.72,0,0,0,.1-.927,4.115,4.115,0,0,0-.087-.915,1.768,1.768,0,0,0-.249-.609.984.984,0,0,0-.393-.342A1.226,1.226,0,0,0-21.012-5.1ZM-15.084.1a1.619,1.619,0,0,1-1.23-.453,1.739,1.739,0,0,1-.432-1.251V-5.046h-.624a.3.3,0,0,1-.207-.078.3.3,0,0,1-.087-.234v-.588l.99-.162.312-1.68a.3.3,0,0,1,.111-.186.352.352,0,0,1,.219-.066h.768V-6.1h1.62v1.056h-1.62V-1.71a.654.654,0,0,0,.144.45.488.488,0,0,0,.384.162.7.7,0,0,0,.231-.033,1.271,1.271,0,0,0,.162-.069q.069-.036.123-.069a.206.206,0,0,1,.108-.033A.17.17,0,0,1-14-1.269a.5.5,0,0,1,.09.1l.444.72a2.244,2.244,0,0,1-.744.408A2.769,2.769,0,0,1-15.084.1Zm5.166-6.348a2.989,2.989,0,0,1,1.071.186A2.345,2.345,0,0,1-8-5.523a2.481,2.481,0,0,1,.552.876,3.308,3.308,0,0,1,.2,1.185,2.144,2.144,0,0,1-.015.279.446.446,0,0,1-.054.174.219.219,0,0,1-.105.09.448.448,0,0,1-.168.027h-3.8A2.12,2.12,0,0,0-10.89-1.5a1.59,1.59,0,0,0,1.176.444,2.037,2.037,0,0,0,.621-.084,2.912,2.912,0,0,0,.456-.186q.2-.1.342-.186A.574.574,0,0,1-8.01-1.6a.321.321,0,0,1,.156.036.345.345,0,0,1,.114.1l.432.54a2.47,2.47,0,0,1-.552.483A3.1,3.1,0,0,1-8.5-.123a3.493,3.493,0,0,1-.678.165A4.855,4.855,0,0,1-9.846.09,3.288,3.288,0,0,1-11.04-.123,2.673,2.673,0,0,1-12-.753a2.956,2.956,0,0,1-.642-1.032,3.994,3.994,0,0,1-.234-1.425,3.408,3.408,0,0,1,.2-1.185,2.849,2.849,0,0,1,.585-.966,2.754,2.754,0,0,1,.93-.651A3.063,3.063,0,0,1-9.918-6.252Zm.03,1.062a1.37,1.37,0,0,0-1.014.366,1.805,1.805,0,0,0-.468,1.038h2.784a1.847,1.847,0,0,0-.078-.543,1.253,1.253,0,0,0-.24-.447,1.136,1.136,0,0,0-.408-.3A1.39,1.39,0,0,0-9.888-5.19ZM-1.716,0a.364.364,0,0,1-.378-.27l-.12-.594a3.68,3.68,0,0,1-.4.39,2.542,2.542,0,0,1-.453.3,2.36,2.36,0,0,1-.522.2,2.507,2.507,0,0,1-.6.069,2.037,2.037,0,0,1-.924-.21,2.059,2.059,0,0,1-.723-.609,2.919,2.919,0,0,1-.468-.987A4.985,4.985,0,0,1-6.474-3.06a4.2,4.2,0,0,1,.186-1.272,3.1,3.1,0,0,1,.534-1.02,2.492,2.492,0,0,1,.834-.675A2.408,2.408,0,0,1-3.828-6.27a2.136,2.136,0,0,1,.882.165,2.311,2.311,0,0,1,.654.441V-8.916H-.81V0ZM-3.69-1.086A1.516,1.516,0,0,0-2.9-1.278a2.334,2.334,0,0,0,.612-.546v-2.76a1.458,1.458,0,0,0-.549-.432,1.619,1.619,0,0,0-.639-.126,1.436,1.436,0,0,0-.609.126,1.191,1.191,0,0,0-.462.381,1.866,1.866,0,0,0-.291.648,3.72,3.72,0,0,0-.1.927,4.115,4.115,0,0,0,.087.915,1.8,1.8,0,0,0,.249.612.949.949,0,0,0,.4.342A1.261,1.261,0,0,0-3.69-1.086Z" transform="translate(60 15)"/></g><g transform="translate(273 2294)"><rect class="r" width="57.798" height="19.076" rx="4" transform="translate(0.392 2.084)"/><path class="c" d="M-44.994-3.39V0h-1.614V-8.676h2.646a5.527,5.527,0,0,1,1.521.183A2.9,2.9,0,0,1-41.4-7.98a1.98,1.98,0,0,1,.594.789A2.631,2.631,0,0,1-40.62-6.18a2.62,2.62,0,0,1-.129.828,2.4,2.4,0,0,1-.372.708,2.507,2.507,0,0,1-.6.558,3.145,3.145,0,0,1-.813.384,1.6,1.6,0,0,1,.528.5L-39.834,0h-1.452a.709.709,0,0,1-.357-.084.73.73,0,0,1-.249-.24L-43.716-3.1a.64.64,0,0,0-.225-.222A.788.788,0,0,0-44.3-3.39Zm0-1.158h1.008a2.5,2.5,0,0,0,.795-.114,1.537,1.537,0,0,0,.558-.315,1.265,1.265,0,0,0,.327-.477A1.649,1.649,0,0,0-42.2-6.06a1.232,1.232,0,0,0-.435-1.014,2.081,2.081,0,0,0-1.329-.354h-1.032Zm8.652-1.7a2.989,2.989,0,0,1,1.071.186,2.345,2.345,0,0,1,.843.543,2.481,2.481,0,0,1,.552.876,3.308,3.308,0,0,1,.2,1.185,2.145,2.145,0,0,1-.015.279.446.446,0,0,1-.054.174.219.219,0,0,1-.1.09.448.448,0,0,1-.168.027h-3.8a2.12,2.12,0,0,0,.51,1.392,1.59,1.59,0,0,0,1.176.444,2.037,2.037,0,0,0,.621-.084,2.912,2.912,0,0,0,.456-.186q.2-.1.342-.186a.574.574,0,0,1,.285-.084.321.321,0,0,1,.156.036.345.345,0,0,1,.114.1l.432.54a2.47,2.47,0,0,1-.552.483,3.1,3.1,0,0,1-.639.312A3.493,3.493,0,0,1-35.6.042,4.855,4.855,0,0,1-36.27.09a3.288,3.288,0,0,1-1.194-.213,2.673,2.673,0,0,1-.96-.63,2.956,2.956,0,0,1-.642-1.032A3.994,3.994,0,0,1-39.3-3.21a3.408,3.408,0,0,1,.2-1.185,2.849,2.849,0,0,1,.585-.966,2.754,2.754,0,0,1,.93-.651A3.063,3.063,0,0,1-36.342-6.252Zm.03,1.062a1.37,1.37,0,0,0-1.014.366,1.805,1.805,0,0,0-.468,1.038h2.784a1.847,1.847,0,0,0-.078-.543,1.252,1.252,0,0,0-.24-.447,1.136,1.136,0,0,0-.408-.3A1.39,1.39,0,0,0-36.312-5.19Zm5.418-.966V.21A2.646,2.646,0,0,1-31,.966a1.656,1.656,0,0,1-.336.621,1.567,1.567,0,0,1-.606.42,2.425,2.425,0,0,1-.915.153,2.635,2.635,0,0,1-.39-.027,2.307,2.307,0,0,1-.366-.087l.048-.8a.178.178,0,0,1,.1-.153.9.9,0,0,1,.3-.033,1.346,1.346,0,0,0,.375-.045.537.537,0,0,0,.246-.144.566.566,0,0,0,.132-.261,1.751,1.751,0,0,0,.039-.4V-6.156Zm.222-1.794a.844.844,0,0,1-.078.36.989.989,0,0,1-.207.294.989.989,0,0,1-.3.2.93.93,0,0,1-.372.075.894.894,0,0,1-.363-.075.962.962,0,0,1-.3-.2.972.972,0,0,1-.2-.294.873.873,0,0,1-.075-.36.93.93,0,0,1,.075-.372.952.952,0,0,1,.2-.3.962.962,0,0,1,.3-.2.894.894,0,0,1,.363-.075.93.93,0,0,1,.372.075.989.989,0,0,1,.3.2.968.968,0,0,1,.207.3A.9.9,0,0,1-30.672-7.95Zm3.972,1.7a2.989,2.989,0,0,1,1.071.186,2.345,2.345,0,0,1,.843.543,2.481,2.481,0,0,1,.552.876,3.308,3.308,0,0,1,.2,1.185,2.144,2.144,0,0,1-.015.279.446.446,0,0,1-.054.174.219.219,0,0,1-.1.09.448.448,0,0,1-.168.027h-3.8a2.12,2.12,0,0,0,.51,1.392,1.59,1.59,0,0,0,1.176.444,2.037,2.037,0,0,0,.621-.084,2.912,2.912,0,0,0,.456-.186q.195-.1.342-.186a.574.574,0,0,1,.285-.084.321.321,0,0,1,.156.036.345.345,0,0,1,.114.1l.432.54a2.47,2.47,0,0,1-.552.483,3.1,3.1,0,0,1-.639.312,3.493,3.493,0,0,1-.678.165,4.855,4.855,0,0,1-.669.048,3.288,3.288,0,0,1-1.194-.213,2.673,2.673,0,0,1-.96-.63,2.956,2.956,0,0,1-.642-1.032,3.994,3.994,0,0,1-.234-1.425,3.408,3.408,0,0,1,.2-1.185,2.849,2.849,0,0,1,.585-.966,2.754,2.754,0,0,1,.93-.651A3.063,3.063,0,0,1-26.7-6.252Zm.03,1.062a1.37,1.37,0,0,0-1.014.366,1.805,1.805,0,0,0-.468,1.038h2.784a1.847,1.847,0,0,0-.078-.543,1.253,1.253,0,0,0-.24-.447,1.136,1.136,0,0,0-.408-.3A1.39,1.39,0,0,0-26.67-5.19Zm8.166.336a.739.739,0,0,1-.129.132.3.3,0,0,1-.183.048.407.407,0,0,1-.222-.069q-.108-.069-.258-.156a1.929,1.929,0,0,0-.357-.156,1.64,1.64,0,0,0-.513-.069,1.565,1.565,0,0,0-.684.141,1.3,1.3,0,0,0-.489.405,1.825,1.825,0,0,0-.291.639,3.431,3.431,0,0,0-.1.849,3.329,3.329,0,0,0,.1.876,1.873,1.873,0,0,0,.3.645,1.3,1.3,0,0,0,.48.4,1.455,1.455,0,0,0,.636.135,1.577,1.577,0,0,0,.573-.087,1.808,1.808,0,0,0,.369-.192q.15-.105.261-.192A.393.393,0,0,1-18.75-1.6a.3.3,0,0,1,.27.138l.426.54a2.679,2.679,0,0,1-.534.483,2.886,2.886,0,0,1-.6.312,3.031,3.031,0,0,1-.639.165,4.539,4.539,0,0,1-.654.048,2.73,2.73,0,0,1-1.074-.213,2.507,2.507,0,0,1-.879-.621,2.993,2.993,0,0,1-.594-1,3.86,3.86,0,0,1-.219-1.347,3.915,3.915,0,0,1,.195-1.257,2.848,2.848,0,0,1,.573-1,2.627,2.627,0,0,1,.936-.663,3.224,3.224,0,0,1,1.284-.24,3.054,3.054,0,0,1,1.209.222,2.954,2.954,0,0,1,.933.636ZM-15.084.1a1.619,1.619,0,0,1-1.23-.453,1.739,1.739,0,0,1-.432-1.251V-5.046h-.624a.3.3,0,0,1-.207-.078.3.3,0,0,1-.087-.234v-.588l.99-.162.312-1.68a.3.3,0,0,1,.111-.186.352.352,0,0,1,.219-.066h.768V-6.1h1.62v1.056h-1.62V-1.71a.654.654,0,0,0,.144.45.488.488,0,0,0,.384.162.7.7,0,0,0,.231-.033,1.271,1.271,0,0,0,.162-.069q.069-.036.123-.069a.206.206,0,0,1,.108-.033A.17.17,0,0,1-14-1.269a.5.5,0,0,1,.09.1l.444.72a2.244,2.244,0,0,1-.744.408A2.769,2.769,0,0,1-15.084.1Zm5.166-6.348a2.989,2.989,0,0,1,1.071.186A2.345,2.345,0,0,1-8-5.523a2.481,2.481,0,0,1,.552.876,3.308,3.308,0,0,1,.2,1.185,2.144,2.144,0,0,1-.015.279.446.446,0,0,1-.054.174.219.219,0,0,1-.105.09.448.448,0,0,1-.168.027h-3.8A2.12,2.12,0,0,0-10.89-1.5a1.59,1.59,0,0,0,1.176.444,2.037,2.037,0,0,0,.621-.084,2.912,2.912,0,0,0,.456-.186q.2-.1.342-.186A.574.574,0,0,1-8.01-1.6a.321.321,0,0,1,.156.036.345.345,0,0,1,.114.1l.432.54a2.47,2.47,0,0,1-.552.483A3.1,3.1,0,0,1-8.5-.123a3.493,3.493,0,0,1-.678.165A4.855,4.855,0,0,1-9.846.09,3.288,3.288,0,0,1-11.04-.123,2.673,2.673,0,0,1-12-.753a2.956,2.956,0,0,1-.642-1.032,3.994,3.994,0,0,1-.234-1.425,3.408,3.408,0,0,1,.2-1.185,2.849,2.849,0,0,1,.585-.966,2.754,2.754,0,0,1,.93-.651A3.063,3.063,0,0,1-9.918-6.252Zm.03,1.062a1.37,1.37,0,0,0-1.014.366,1.805,1.805,0,0,0-.468,1.038h2.784a1.847,1.847,0,0,0-.078-.543,1.253,1.253,0,0,0-.24-.447,1.136,1.136,0,0,0-.408-.3A1.39,1.39,0,0,0-9.888-5.19ZM-1.716,0a.364.364,0,0,1-.378-.27l-.12-.594a3.68,3.68,0,0,1-.4.39,2.542,2.542,0,0,1-.453.3,2.36,2.36,0,0,1-.522.2,2.507,2.507,0,0,1-.6.069,2.037,2.037,0,0,1-.924-.21,2.059,2.059,0,0,1-.723-.609,2.919,2.919,0,0,1-.468-.987A4.985,4.985,0,0,1-6.474-3.06a4.2,4.2,0,0,1,.186-1.272,3.1,3.1,0,0,1,.534-1.02,2.492,2.492,0,0,1,.834-.675A2.408,2.408,0,0,1-3.828-6.27a2.136,2.136,0,0,1,.882.165,2.311,2.311,0,0,1,.654.441V-8.916H-.81V0ZM-3.69-1.086A1.516,1.516,0,0,0-2.9-1.278a2.334,2.334,0,0,0,.612-.546v-2.76a1.458,1.458,0,0,0-.549-.432,1.619,1.619,0,0,0-.639-.126,1.436,1.436,0,0,0-.609.126,1.191,1.191,0,0,0-.462.381,1.866,1.866,0,0,0-.291.648,3.72,3.72,0,0,0-.1.927,4.115,4.115,0,0,0,.087.915,1.8,1.8,0,0,0,.249.612.949.949,0,0,0,.4.342A1.261,1.261,0,0,0-3.69-1.086Z" transform="translate(53 15)"/></g></g></svg>